<?xml version="1.0" encoding="UTF-8" standalone="no"?>
<!-- Created with Inkscape (http://www.inkscape.org/) -->

<svg
   xmlns:dc="http://purl.org/dc/elements/1.1/"
   xmlns:cc="http://creativecommons.org/ns#"
   xmlns:rdf="http://www.w3.org/1999/02/22-rdf-syntax-ns#"
   xmlns:svg="http://www.w3.org/2000/svg"
   xmlns="http://www.w3.org/2000/svg"
   xmlns:xlink="http://www.w3.org/1999/xlink"
   xmlns:sodipodi="http://sodipodi.sourceforge.net/DTD/sodipodi-0.dtd"
   xmlns:inkscape="http://www.inkscape.org/namespaces/inkscape"
   width="153.84346mm"
   height="48.199692mm"
   viewBox="0 0 153.84346 48.199692"
   version="1.1"
   id="svg8"
   inkscape:version="0.92.4 (5da689c313, 2019-01-14)"
   sodipodi:docname="two_sided_cavity_schematic_with_labels_split_channels.svg"
   inkscape:export-filename="D:\Ben_RimbergLab\LaTex\papers\frequency_fluctuations\draft\figs\two_sided_cavity_schematic\two_sided_cavity_schematic_with_labels.svg.png"
   inkscape:export-xdpi="96"
   inkscape:export-ydpi="96">
  <defs
     id="defs2">
    <path
       d="m 52,289 q 7,42 54,97 47,55 116,56 35,0 64,-18 29,-18 43,-45 42,63 101,63 37,0 64,-22 27,-22 28,-59 0,-29 -14,-47 -14,-18 -27,-22 -13,-4 -23,-4 -19,0 -31,11 -12,11 -12,29 0,46 50,63 -11,13 -40,13 -13,0 -19,-2 -38,-16 -56,-66 -60,-221 -60,-258 0,-28 16,-40 16,-12 35,-12 37,0 73,33 36,33 49,81 3,10 6,11 3,1 16,2 h 4 q 15,0 15,-8 0,-1 -2,-11 Q 486,77 440,33 394,-11 333,-11 263,-11 227,52 186,-10 133,-10 h -6 q -49,0 -70,26 -21,26 -22,55 0,32 19,52 19,20 45,20 43,0 43,-42 Q 142,81 130,66 118,51 107,46 96,41 94,41 l -3,-1 q 0,-1 6,-4 6,-3 16,-7 10,-4 19,-3 36,0 62,45 9,16 23,68 14,52 28,108 14,56 16,66 5,27 5,39 0,28 -15,40 -15,12 -34,12 -40,0 -75,-32 -35,-32 -49,-82 -2,-9 -5,-10 -3,-1 -16,-2 H 58 q -6,6 -6,11 z"
       id="MJMATHI-78"
       inkscape:connector-curvature="0"
       style="stroke-width:1" />
    <path
       d="m 56,347 q 0,13 14,20 h 637 q 15,-8 15,-20 0,-11 -14,-19 L 390,327 H 72 q -16,5 -16,20 z m 0,-194 q 0,15 16,20 h 636 q 14,-10 14,-20 0,-13 -15,-20 H 70 q -14,7 -14,20 z"
       id="MJMAIN-3D"
       inkscape:connector-curvature="0"
       style="stroke-width:1" />
    <path
       d="m 295,316 q 0,40 -27,69 -27,29 -78,29 -36,0 -62,-13 -30,-19 -30,-52 -1,-5 0,-13 1,-8 16,-24 15,-16 43,-25 18,-5 44,-9 26,-4 44,-9 18,-5 32,-13 17,-8 33,-20 16,-12 32,-41 16,-29 17,-62 Q 359,71 321,31 283,-9 198,-10 h -8 q -52,0 -96,36 L 86,19 77,10 Q 71,4 65,-1 L 54,-11 h -8 -4 q -3,0 -9,6 v 79 58 q 0,21 2,25 2,4 10,5 h 9 q 12,0 16,-4 4,-4 5,-12 1,-8 7,-27 6,-19 19,-42 35,-51 97,-51 97,0 97,78 0,29 -18,47 -20,24 -83,36 -63,12 -83,23 -36,17 -57,46 -21,29 -21,62 0,39 17,66 17,27 43,40 26,13 50,18 24,5 44,5 h 11 q 40,0 70,-15 l 15,-8 9,7 q 10,9 22,17 h 8 4 q 3,0 9,-6 V 310 l -6,-6 h -28 q -6,6 -6,12 z"
       id="MJMAIN-73"
       inkscape:connector-curvature="0"
       style="stroke-width:1" />
    <path
       d="m 69,609 q 0,28 18,44 18,16 44,16 23,-2 40,-17 17,-15 17,-43 0,-30 -17,-45 -17,-15 -42,-15 -25,0 -42,15 -17,15 -18,45 z M 247,0 Q 232,3 143,3 132,3 106,3 80,3 56,1 L 34,0 h -8 v 46 h 16 q 28,0 49,3 9,4 11,11 2,7 2,42 v 103 88 q 0,52 -2,66 -2,14 -14,19 -14,7 -47,7 H 30 v 23 q 0,23 2,23 l 10,1 q 10,1 28,2 18,1 36,2 17,1 36,2 19,1 29,3 10,2 11,1 h 3 V 62 q 5,-10 12,-12 7,-2 35,-4 h 23 V 0 Z"
       id="MJMAIN-69"
       inkscape:connector-curvature="0"
       style="stroke-width:1" />
    <path
       d="m 41,46 h 14 q 39,0 47,14 v 8 q 0,9 0,23 0,14 0,31 0,17 1,39 1,22 0,42 0,31 0,66 0,35 -1,59 v 23 q -3,19 -14,25 -11,6 -45,9 H 25 v 23 q 0,23 2,23 l 10,1 q 10,1 28,2 18,1 37,2 17,1 36,2 19,1 29,3 10,2 11,1 h 3 v -40 q 0,-38 1,-38 1,0 5,5 4,5 12,15 8,10 19,18 11,8 29,19 18,11 38,16 20,5 51,5 114,-4 127,-113 1,-7 1,-139 v -86 q 0,-38 2,-45 2,-7 11,-10 21,-3 49,-3 h 16 V 0 h -8 L 510,1 Q 487,2 460,2 433,2 422,3 319,3 310,0 h -8 v 46 h 16 q 61,0 61,16 1,2 1,138 -1,135 -2,143 -6,28 -20,42 -14,14 -24,17 -10,3 -26,2 -45,0 -79,-34 -27,-27 -34,-55 -7,-28 -8,-83 v -64 -60 q 0,-30 1,-40 1,-10 3,-13 2,-3 9,-6 21,-3 49,-3 h 16 V 0 h -8 L 234,1 Q 210,2 183,2 156,2 145,3 42,3 33,0 h -8 v 46 z"
       id="MJMAIN-6E"
       inkscape:connector-curvature="0"
       style="stroke-width:1" />
    <path
       d="m 132,-11 q -34,0 -34,33 v 11 l 13,28 q 75,158 109,273 l 8,24 h -32 q -38,0 -54,-3 -16,-3 -39,-19 -11,-7 -22,-18 -11,-11 -19,-21 -8,-10 -9,-12 -2,-1 -15,-1 -19,0 -19,10 0,6 19,35 19,29 55,62 36,33 71,38 7,2 225,2 160,0 164,-1 20,-7 20,-28 0,-31 -32,-42 -6,-2 -69,-2 h -64 l -3,-17 q -12,-72 -12,-119 0,-52 9,-93 9,-41 19,-64 10,-23 10,-28 0,-17 -14,-32 -14,-15 -36,-15 -11,0 -18,3 -7,3 -16,24 -9,21 -16,60 -1,9 -1,44 0,49 9,105 9,56 18,92 9,36 10,40 h -98 l -1,-4 q 0,-3 -19,-79 Q 230,199 206,114 182,29 175,17 164,-11 132,-11 Z"
       id="MJMATHI-3C0"
       inkscape:connector-curvature="0"
       style="stroke-width:1" />
    <path
       d="m 33,157 q 0,101 76,192 76,91 171,92 51,0 90,-49 16,30 46,30 13,0 23,-8 10,-8 10,-20 0,-13 -37,-160 -37,-147 -38,-166 0,-25 7,-33 7,-8 21,-9 9,1 20,9 21,20 41,96 6,20 10,21 2,1 10,1 h 4 q 19,0 19,-9 0,-6 -5,-27 Q 496,96 481,63 466,30 449,13 436,0 417,-8 q -8,-2 -24,-2 -34,0 -57,15 -23,15 -30,31 l -6,15 q -1,1 -4,-1 -2,-2 -4,-4 -59,-56 -120,-56 -55,0 -97,40 -42,40 -42,127 z m 318,171 q 0,6 -5,22 -5,16 -23,35 -18,19 -46,20 -35,0 -67,-31 -32,-31 -50,-81 -29,-79 -41,-164 0,-3 0,-11 0,-8 -1,-12 0,-45 18,-62 18,-17 43,-18 38,0 75,33 37,33 44,51 2,4 27,107 25,103 26,111 z"
       id="MJMATHI-61"
       inkscape:connector-curvature="0"
       style="stroke-width:1" />
    <path
       d="m 213,578 -13,-5 q -14,-5 -40,-10 -26,-5 -58,-7 H 83 v 46 h 19 q 47,2 87,15 40,13 56,24 16,11 28,22 2,3 12,3 9,0 17,-6 V 361 l 1,-300 q 7,-7 12,-9 5,-2 24,-4 19,-2 62,-2 h 26 V 0 H 416 Q 395,3 257,3 121,3 100,0 H 88 v 46 h 26 q 22,0 38,0 16,0 25,1 9,1 16,3 7,2 8,2 1,0 6,5 5,5 6,4 z"
       id="MJMAIN-31"
       inkscape:connector-curvature="0"
       style="stroke-width:1" />
    <path
       d="m 84,237 q 0,0 0,13 0,13 14,20 h 1346 q -116,87 -143,223 0,1 0,3 0,2 -1,3 0,12 17,12 h 3 q 9,0 12,-1 3,-1 6,-4 3,-3 3,-9 0,-6 3,-16 3,-10 8,-25 22,-67 73,-120 51,-53 119,-75 9,-3 9,-11 0,-6 -5,-9 -5,-3 -24,-10 -19,-7 -38,-19 -41,-26 -71,-60 -30,-34 -45,-67 -15,-33 -21,-50 -6,-17 -8,-31 -2,-10 -5,-12 -3,-2 -16,-3 -20,0 -20,11 0,7 5,25 32,126 139,205 H 98 q -14,7 -14,20 z"
       id="MJMAIN-27F6"
       inkscape:connector-curvature="0"
       style="stroke-width:1" />
    <path
       d="m 165,270 h 1345 q 15,-8 15,-20 0,-12 -15,-20 H 165 q 2,-2 17,-14 15,-12 29,-27 14,-15 33,-37 19,-22 33,-56 14,-34 26,-71 5,-18 5,-25 0,-11 -20,-11 -7,0 -10,0 -3,0 -6,4 -3,4 -5,9 -2,5 -4,19 -18,73 -68,130 -50,57 -122,85 -15,6 -18,11 0,7 4,10 4,3 14,7 48,19 85,50 37,31 57,61 20,30 32,59 12,29 17,46 l 3,17 q 2,6 3,8 1,2 5,4 4,2 13,2 20,0 20,-11 0,-7 -5,-25 -10,-37 -25,-69 -15,-32 -32,-54 -17,-22 -31,-37 -14,-15 -30,-28 -16,-13 -20,-17 z"
       id="MJMAIN-27F5"
       inkscape:connector-curvature="0"
       style="stroke-width:1" />
    <path
       d="m 28,214 q 0,95 65,164 65,69 157,70 90,0 155,-68 65,-68 66,-165 Q 471,120 407,55 343,-10 250,-10 153,-10 91,57 29,124 28,214 Z M 250,30 q 122,0 122,163 v 32 25 q 0,22 -1,38 -1,16 -7,38 -6,22 -16,36 -10,14 -31,28 -21,14 -49,20 -5,1 -16,1 -30,0 -57,-12 -43,-22 -56,-61 -13,-39 -13,-92 v -20 q 0,-96 19,-135 32,-61 105,-61 z"
       id="MJMAIN-6F"
       inkscape:connector-curvature="0"
       style="stroke-width:1" />
    <path
       d="M 383,58 Q 327,-10 256,-10 h -7 q -125,0 -144,99 -1,7 -2,137 -1,109 -1,122 0,13 -6,21 -10,16 -60,16 H 25 v 23 q 0,23 2,23 l 11,1 q 10,1 29,2 19,1 38,2 17,1 37,2 20,1 30,3 10,2 12,1 h 3 V 261 q 1,-184 3,-197 3,-15 14,-24 20,-14 60,-14 26,0 47,9 21,9 32,23 11,14 20,32 9,18 12,30 3,12 4,24 0,1 0,17 0,16 1,40 1,24 0,47 v 67 q 0,46 -10,57 -10,11 -50,13 h -18 v 46 q 2,0 76,5 74,5 79,6 h 7 V 264 q 0,-180 1,-183 3,-20 14,-26 11,-6 45,-9 h 18 V 0 q -2,0 -75,-5 -73,-5 -77,-6 h -7 z"
       id="MJMAIN-75"
       inkscape:connector-curvature="0"
       style="stroke-width:1" />
    <path
       d="m 27,422 q 53,4 82,56 29,52 32,122 v 15 h 40 V 431 H 316 V 385 H 181 V 241 q 1,-125 1,-141 0,-16 7,-32 14,-39 49,-39 44,0 54,71 1,8 1,46 v 35 h 40 v -35 -12 q 0,-77 -42,-117 -27,-27 -70,-27 -34,0 -59,12 -25,12 -38,31 -13,19 -19,35 -6,16 -7,32 -1,7 -1,148 V 385 H 18 v 37 z"
       id="MJMAIN-74"
       inkscape:connector-curvature="0"
       style="stroke-width:1" />
    <path
       d="m 228,637 q -34,0 -36,4 -1,2 -1,8 0,24 11,33 2,1 17,1 41,-2 136,-2 34,0 63,0 29,0 45,1 16,1 20,0 16,0 16,-10 0,-2 -2,-14 -5,-17 -10,-20 h -2 q -2,0 -5,0 -3,0 -7,0 -4,0 -9,-1 -5,-1 -9,0 -39,-1 -50,-3 -11,-2 -18,-11 -3,-4 -32,-123 -7,-26 -15,-58 -8,-32 -12,-47 l -4,-15 q 0,-2 145,-2 h 145 l 1,3 q 0,3 31,123 28,115 28,123 0,8 -57,10 -23,0 -30,2 -7,2 -7,9 0,2 2,12 4,17 6,19 2,2 16,3 5,0 42,-1 37,-1 94,-1 62,0 95,1 33,1 36,1 17,0 17,-10 0,-27 -12,-34 h -2 q -2,0 -5,0 -3,0 -7,0 -4,0 -9,-1 -5,-1 -9,0 -39,-1 -50,-3 -11,-2 -18,-11 -3,-5 -72,-283 -69,-278 -70,-282 0,-7 4,-7 8,-3 54,-5 h 31 q 6,-8 6,-9 0,-1 -3,-18 Q 722,6 716,0 h -15 q -37,2 -134,2 -34,0 -63,0 -29,0 -46,0 -17,0 -21,-1 -17,0 -17,9 0,5 3,14 5,19 10,21 4,1 15,1 h 6 q 27,0 60,3 6,1 8,1 2,0 6,5 4,5 6,9 2,4 6,18 4,14 7,28 3,14 11,43 7,28 11,45 33,132 33,133 0,1 -145,1 H 312 L 279,197 Q 245,63 245,58 q 0,-7 8,-9 8,-2 50,-3 h 31 q 6,-8 6,-9 0,-1 -3,-18 Q 333,6 327,0 H 312 Q 275,2 178,2 144,2 115,2 86,2 69,2 52,2 48,1 31,1 31,10 q 0,2 3,14 5,19 10,21 4,1 15,1 h 6 q 27,0 60,3 14,3 19,12 3,4 72,278 69,274 69,289 0,7 -57,9 z"
       id="MJMATHI-48"
       inkscape:connector-curvature="0"
       style="stroke-width:1" />
    <path
       d="m 182,599 q 0,12 -8,16 -8,4 -41,4 -15,0 -19,2 -4,2 -5,9 0,6 5,26 5,20 8,25 3,4 80,7 70,7 84,7 18,0 18,-11 0,-2 -9,-40 -9,-38 -13,-47 0,-5 78,-5 h 39 q 31,0 46,-5 15,-5 15,-24 0,-11 -9,-22 l -9,-6 H 266 l -15,-67 q -4,-15 -8,-32 -4,-17 -7,-27 -3,-10 -3,-10 0,-4 11,5 51,37 113,37 48,0 88,-24 40,-24 40,-84 0,-49 -36,-155 -36,-106 -37,-120 -1,-14 14,-14 21,0 40,24 19,19 34,62 l 9,22 h 22 12 q 19,0 19,-8 0,-16 -16,-51 -16,-35 -52,-70 -36,-35 -79,-36 -30,0 -56,16 -26,16 -37,41 -4,8 -4,33 0,22 34,119 34,97 34,141 0,49 -40,49 -28,0 -60,-16 -19,-9 -41,-32 -22,-23 -34,-46 -4,-5 -18,-57 Q 179,183 162,113 145,43 138,21 128,7 122,4 105,-12 83,-12 66,-12 54,-2 42,8 42,26 l 124,504 q 0,4 -5,4 -5,0 -32,1 -2,0 -7,0 -5,0 -10,-1 -38,0 -38,28 0,8 3,14 3,6 7,9 4,3 12,4 8,1 13,2 5,1 15,1 10,0 14,0 l 44,3 z"
       id="MJMAIN-210F"
       inkscape:connector-curvature="0"
       style="stroke-width:1" />
    <path
       d="m 495,384 q 0,22 19,40 19,18 41,19 19,0 34,-18 15,-18 15,-61 0,-30 -12,-86 Q 580,222 555,155 530,88 483,38 436,-12 377,-11 q -80,0 -110,77 -1,2 -7,-5 -59,-72 -135,-72 -110,0 -110,150 0,91 41,186 41,95 67,109 12,7 24,2 13,-7 13,-18 0,-12 -20,-39 -20,-27 -46,-73 -26,-46 -32,-98 -1,-6 -1,-21 0,-63 24,-87 24,-24 58,-24 58,0 102,53 l 8,8 v 19 q 5,141 64,141 31,0 31,-36 0,-18 -10,-48 -10,-30 -20,-55 l -10,-23 q 1,-2 2,-6 1,-4 8,-14 7,-10 16,-18 9,-8 24,-14 15,-6 35,-7 63,0 108,72 45,72 45,126 0,31 -13,51 -13,20 -25,32 -12,12 -13,27 z"
       id="MJMATHI-3C9"
       inkscape:connector-curvature="0"
       style="stroke-width:1" />
    <path
       d="m 96,585 q 56,81 153,81 48,0 96,-26 48,-26 78,-92 37,-83 37,-228 0,-155 -43,-237 -20,-42 -55,-67 -35,-25 -61,-31 -26,-6 -51,-7 -26,0 -52,6 -26,6 -61,32 -35,26 -55,67 -43,82 -43,237 0,174 57,265 z m 225,12 q -30,32 -71,32 -42,0 -72,-32 -25,-26 -33,-72 -8,-46 -8,-192 0,-158 8,-208 8,-50 36,-79 28,-30 69,-30 40,0 68,30 29,30 36,84 7,54 8,203 0,145 -8,191 -8,46 -33,73 z"
       id="MJMAIN-30"
       inkscape:connector-curvature="0"
       style="stroke-width:1" />
    <path
       d="m 182,675 q 13,30 40,30 12,0 21,-5 9,-5 10,-9 1,-4 10,-16 l -1,-20 q 0,-35 -10,-106 -10,-71 -12,-95 v -5 q 10,2 48,12 38,10 58,11 20,1 31,-11 11,-12 12,-30 0,-14 -10,-27 -10,-13 -33,-14 -19,0 -58,11 -39,11 -45,11 h -3 v -7 q 5,-38 10,-66 5,-28 8,-38 3,-10 3,-27 0,-17 2,-49 0,-101 -8,-266 -8,-165 -16,-172 -3,-3 -17,-3 h -5 q -11,0 -13,4 -2,4 -4,26 -1,11 -1,18 -18,206 -18,393 0,40 1,55 1,15 9,47 8,32 13,78 v 7 h -3 q -5,0 -44,-11 -39,-11 -59,-11 -22,0 -32,13 -10,13 -11,28 -1,15 10,27 11,12 33,14 18,0 57,-10 39,-10 50,-13 -1,3 -1,11 0,8 -3,30 -3,22 -8,57 -11,72 -11,108 z"
       id="MJMAIN-2020"
       inkscape:connector-curvature="0"
       style="stroke-width:1" />
    <path
       d="m 109,429 q -27,0 -43,18 -16,18 -16,44 0,71 53,123 53,52 132,52 91,0 152,-56 61,-56 62,-145 0,-43 -20,-82 -20,-39 -48,-68 -28,-29 -80,-74 -36,-31 -100,-92 l -59,-56 76,-1 q 157,0 167,5 7,2 24,89 v 3 h 40 v -3 Q 448,183 436,95 424,7 421,3 V 0 H 50 v 19 12 q 0,7 6,15 6,8 30,35 29,32 50,56 9,10 34,37 25,27 34,37 9,10 29,33 20,23 28,34 8,11 23,30 15,19 21,32 6,13 15,29 9,16 13,32 4,16 7,30 3,14 3,33 0,63 -34,109 -34,46 -97,46 -33,0 -58,-17 -25,-17 -35,-33 -10,-16 -10,-19 0,-1 5,-1 18,0 37,-14 19,-14 19,-46 0,-25 -16,-42 -16,-17 -45,-18 z"
       id="MJMAIN-32"
       inkscape:connector-curvature="0"
       style="stroke-width:1" />
    <path
       d="m 52,289 q 7,42 54,97 47,55 116,56 35,0 64,-18 29,-18 43,-45 42,63 101,63 37,0 64,-22 27,-22 28,-59 0,-29 -14,-47 -14,-18 -27,-22 -13,-4 -23,-4 -19,0 -31,11 -12,11 -12,29 0,46 50,63 -11,13 -40,13 -13,0 -19,-2 -38,-16 -56,-66 -60,-221 -60,-258 0,-28 16,-40 16,-12 35,-12 37,0 73,33 36,33 49,81 3,10 6,11 3,1 16,2 h 4 q 15,0 15,-8 0,-1 -2,-11 Q 486,77 440,33 394,-11 333,-11 263,-11 227,52 186,-10 133,-10 h -6 q -49,0 -70,26 -21,26 -22,55 0,32 19,52 19,20 45,20 43,0 43,-42 Q 142,81 130,66 118,51 107,46 96,41 94,41 l -3,-1 q 0,-1 6,-4 6,-3 16,-7 10,-4 19,-3 36,0 62,45 9,16 23,68 14,52 28,108 14,56 16,66 5,27 5,39 0,28 -15,40 -15,12 -34,12 -40,0 -75,-32 -35,-32 -49,-82 -2,-9 -5,-10 -3,-1 -16,-2 H 58 q -6,6 -6,11 z"
       id="MJMATHI-78-8"
       inkscape:connector-curvature="0"
       style="stroke-width:1" />
    <path
       d="m 56,347 q 0,13 14,20 h 637 q 15,-8 15,-20 0,-11 -14,-19 L 390,327 H 72 q -16,5 -16,20 z m 0,-194 q 0,15 16,20 h 636 q 14,-10 14,-20 0,-13 -15,-20 H 70 q -14,7 -14,20 z"
       id="MJMAIN-3D-2"
       inkscape:connector-curvature="0"
       style="stroke-width:1" />
    <path
       d="m 295,316 q 0,40 -27,69 -27,29 -78,29 -36,0 -62,-13 -30,-19 -30,-52 -1,-5 0,-13 1,-8 16,-24 15,-16 43,-25 18,-5 44,-9 26,-4 44,-9 18,-5 32,-13 17,-8 33,-20 16,-12 32,-41 16,-29 17,-62 Q 359,71 321,31 283,-9 198,-10 h -8 q -52,0 -96,36 L 86,19 77,10 Q 71,4 65,-1 L 54,-11 h -8 -4 q -3,0 -9,6 v 79 58 q 0,21 2,25 2,4 10,5 h 9 q 12,0 16,-4 4,-4 5,-12 1,-8 7,-27 6,-19 19,-42 35,-51 97,-51 97,0 97,78 0,29 -18,47 -20,24 -83,36 -63,12 -83,23 -36,17 -57,46 -21,29 -21,62 0,39 17,66 17,27 43,40 26,13 50,18 24,5 44,5 h 11 q 40,0 70,-15 l 15,-8 9,7 q 10,9 22,17 h 8 4 q 3,0 9,-6 V 310 l -6,-6 h -28 q -6,6 -6,12 z"
       id="MJMAIN-73-4"
       inkscape:connector-curvature="0"
       style="stroke-width:1" />
    <path
       d="m 69,609 q 0,28 18,44 18,16 44,16 23,-2 40,-17 17,-15 17,-43 0,-30 -17,-45 -17,-15 -42,-15 -25,0 -42,15 -17,15 -18,45 z M 247,0 Q 232,3 143,3 132,3 106,3 80,3 56,1 L 34,0 h -8 v 46 h 16 q 28,0 49,3 9,4 11,11 2,7 2,42 v 103 88 q 0,52 -2,66 -2,14 -14,19 -14,7 -47,7 H 30 v 23 q 0,23 2,23 l 10,1 q 10,1 28,2 18,1 36,2 17,1 36,2 19,1 29,3 10,2 11,1 h 3 V 62 q 5,-10 12,-12 7,-2 35,-4 h 23 V 0 Z"
       id="MJMAIN-69-5"
       inkscape:connector-curvature="0"
       style="stroke-width:1" />
    <path
       d="m 41,46 h 14 q 39,0 47,14 v 8 q 0,9 0,23 0,14 0,31 0,17 1,39 1,22 0,42 0,31 0,66 0,35 -1,59 v 23 q -3,19 -14,25 -11,6 -45,9 H 25 v 23 q 0,23 2,23 l 10,1 q 10,1 28,2 18,1 37,2 17,1 36,2 19,1 29,3 10,2 11,1 h 3 v -40 q 0,-38 1,-38 1,0 5,5 4,5 12,15 8,10 19,18 11,8 29,19 18,11 38,16 20,5 51,5 114,-4 127,-113 1,-7 1,-139 v -86 q 0,-38 2,-45 2,-7 11,-10 21,-3 49,-3 h 16 V 0 h -8 L 510,1 Q 487,2 460,2 433,2 422,3 319,3 310,0 h -8 v 46 h 16 q 61,0 61,16 1,2 1,138 -1,135 -2,143 -6,28 -20,42 -14,14 -24,17 -10,3 -26,2 -45,0 -79,-34 -27,-27 -34,-55 -7,-28 -8,-83 v -64 -60 q 0,-30 1,-40 1,-10 3,-13 2,-3 9,-6 21,-3 49,-3 h 16 V 0 h -8 L 234,1 Q 210,2 183,2 156,2 145,3 42,3 33,0 h -8 v 46 z"
       id="MJMAIN-6E-1"
       inkscape:connector-curvature="0"
       style="stroke-width:1" />
    <path
       d="m 132,-11 q -34,0 -34,33 v 11 l 13,28 q 75,158 109,273 l 8,24 h -32 q -38,0 -54,-3 -16,-3 -39,-19 -11,-7 -22,-18 -11,-11 -19,-21 -8,-10 -9,-12 -2,-1 -15,-1 -19,0 -19,10 0,6 19,35 19,29 55,62 36,33 71,38 7,2 225,2 160,0 164,-1 20,-7 20,-28 0,-31 -32,-42 -6,-2 -69,-2 h -64 l -3,-17 q -12,-72 -12,-119 0,-52 9,-93 9,-41 19,-64 10,-23 10,-28 0,-17 -14,-32 -14,-15 -36,-15 -11,0 -18,3 -7,3 -16,24 -9,21 -16,60 -1,9 -1,44 0,49 9,105 9,56 18,92 9,36 10,40 h -98 l -1,-4 q 0,-3 -19,-79 Q 230,199 206,114 182,29 175,17 164,-11 132,-11 Z"
       id="MJMATHI-3C0-0"
       inkscape:connector-curvature="0"
       style="stroke-width:1" />
    <path
       d="m 83,-11 q -13,0 -21,7 -8,7 -11,12 -3,5 -2,9 0,13 47,200 47,187 51,197 13,28 46,28 12,-1 20,-7 8,-6 10,-13 2,-7 2,-10 0,-11 -17,-75 l -16,-67 q 1,-1 16,7 15,8 27,15 17,12 71,57 54,45 90,63 36,18 71,19 22,0 33,-11 11,-11 12,-29 0,-25 -18,-44 -18,-19 -45,-20 -19,0 -31,11 -12,11 -13,30 0,2 2,12 l -10,-5 q -29,-15 -82,-60 l -62,-49 -13,-9 h 5 q 17,0 55,-6 38,-6 66,-21 56,-27 56,-80 0,-10 -5,-36 -5,-26 -6,-47 0,-41 26,-41 47,0 76,111 3,12 6,14 3,2 16,2 19,0 19,-9 0,-23 -27,-80 -27,-57 -70,-71 -10,-3 -26,-3 -45,0 -71,27 -26,27 -27,73 0,18 3,32 3,14 3,24 0,24 -19,40 -19,16 -49,23 -30,7 -49,9 -19,2 -37,3 h -5 L 155,122 Q 129,22 126,16 113,-11 83,-11 Z"
       id="MJMATHI-3BA"
       inkscape:connector-curvature="0"
       style="stroke-width:1" />
    <path
       d="m 213,578 -13,-5 q -14,-5 -40,-10 -26,-5 -58,-7 H 83 v 46 h 19 q 47,2 87,15 40,13 56,24 16,11 28,22 2,3 12,3 9,0 17,-6 V 361 l 1,-300 q 7,-7 12,-9 5,-2 24,-4 19,-2 62,-2 h 26 V 0 H 416 Q 395,3 257,3 121,3 100,0 H 88 v 46 h 26 q 22,0 38,0 16,0 25,1 9,1 16,3 7,2 8,2 1,0 6,5 5,5 6,4 z"
       id="MJMAIN-31-7"
       inkscape:connector-curvature="0"
       style="stroke-width:1" />
    <path
       d="m 52,289 q 7,42 54,97 47,55 116,56 35,0 64,-18 29,-18 43,-45 42,63 101,63 37,0 64,-22 27,-22 28,-59 0,-29 -14,-47 -14,-18 -27,-22 -13,-4 -23,-4 -19,0 -31,11 -12,11 -12,29 0,46 50,63 -11,13 -40,13 -13,0 -19,-2 -38,-16 -56,-66 -60,-221 -60,-258 0,-28 16,-40 16,-12 35,-12 37,0 73,33 36,33 49,81 3,10 6,11 3,1 16,2 h 4 q 15,0 15,-8 0,-1 -2,-11 Q 486,77 440,33 394,-11 333,-11 263,-11 227,52 186,-10 133,-10 h -6 q -49,0 -70,26 -21,26 -22,55 0,32 19,52 19,20 45,20 43,0 43,-42 Q 142,81 130,66 118,51 107,46 96,41 94,41 l -3,-1 q 0,-1 6,-4 6,-3 16,-7 10,-4 19,-3 36,0 62,45 9,16 23,68 14,52 28,108 14,56 16,66 5,27 5,39 0,28 -15,40 -15,12 -34,12 -40,0 -75,-32 -35,-32 -49,-82 -2,-9 -5,-10 -3,-1 -16,-2 H 58 q -6,6 -6,11 z"
       id="MJMATHI-78-4"
       inkscape:connector-curvature="0"
       style="stroke-width:1" />
    <path
       d="m 56,347 q 0,13 14,20 h 637 q 15,-8 15,-20 0,-11 -14,-19 L 390,327 H 72 q -16,5 -16,20 z m 0,-194 q 0,15 16,20 h 636 q 14,-10 14,-20 0,-13 -15,-20 H 70 q -14,7 -14,20 z"
       id="MJMAIN-3D-1"
       inkscape:connector-curvature="0"
       style="stroke-width:1" />
    <path
       d="m 295,316 q 0,40 -27,69 -27,29 -78,29 -36,0 -62,-13 -30,-19 -30,-52 -1,-5 0,-13 1,-8 16,-24 15,-16 43,-25 18,-5 44,-9 26,-4 44,-9 18,-5 32,-13 17,-8 33,-20 16,-12 32,-41 16,-29 17,-62 Q 359,71 321,31 283,-9 198,-10 h -8 q -52,0 -96,36 L 86,19 77,10 Q 71,4 65,-1 L 54,-11 h -8 -4 q -3,0 -9,6 v 79 58 q 0,21 2,25 2,4 10,5 h 9 q 12,0 16,-4 4,-4 5,-12 1,-8 7,-27 6,-19 19,-42 35,-51 97,-51 97,0 97,78 0,29 -18,47 -20,24 -83,36 -63,12 -83,23 -36,17 -57,46 -21,29 -21,62 0,39 17,66 17,27 43,40 26,13 50,18 24,5 44,5 h 11 q 40,0 70,-15 l 15,-8 9,7 q 10,9 22,17 h 8 4 q 3,0 9,-6 V 310 l -6,-6 h -28 q -6,6 -6,12 z"
       id="MJMAIN-73-9"
       inkscape:connector-curvature="0"
       style="stroke-width:1" />
    <path
       d="m 69,609 q 0,28 18,44 18,16 44,16 23,-2 40,-17 17,-15 17,-43 0,-30 -17,-45 -17,-15 -42,-15 -25,0 -42,15 -17,15 -18,45 z M 247,0 Q 232,3 143,3 132,3 106,3 80,3 56,1 L 34,0 h -8 v 46 h 16 q 28,0 49,3 9,4 11,11 2,7 2,42 v 103 88 q 0,52 -2,66 -2,14 -14,19 -14,7 -47,7 H 30 v 23 q 0,23 2,23 l 10,1 q 10,1 28,2 18,1 36,2 17,1 36,2 19,1 29,3 10,2 11,1 h 3 V 62 q 5,-10 12,-12 7,-2 35,-4 h 23 V 0 Z"
       id="MJMAIN-69-3"
       inkscape:connector-curvature="0"
       style="stroke-width:1" />
    <path
       d="m 41,46 h 14 q 39,0 47,14 v 8 q 0,9 0,23 0,14 0,31 0,17 1,39 1,22 0,42 0,31 0,66 0,35 -1,59 v 23 q -3,19 -14,25 -11,6 -45,9 H 25 v 23 q 0,23 2,23 l 10,1 q 10,1 28,2 18,1 37,2 17,1 36,2 19,1 29,3 10,2 11,1 h 3 v -40 q 0,-38 1,-38 1,0 5,5 4,5 12,15 8,10 19,18 11,8 29,19 18,11 38,16 20,5 51,5 114,-4 127,-113 1,-7 1,-139 v -86 q 0,-38 2,-45 2,-7 11,-10 21,-3 49,-3 h 16 V 0 h -8 L 510,1 Q 487,2 460,2 433,2 422,3 319,3 310,0 h -8 v 46 h 16 q 61,0 61,16 1,2 1,138 -1,135 -2,143 -6,28 -20,42 -14,14 -24,17 -10,3 -26,2 -45,0 -79,-34 -27,-27 -34,-55 -7,-28 -8,-83 v -64 -60 q 0,-30 1,-40 1,-10 3,-13 2,-3 9,-6 21,-3 49,-3 h 16 V 0 h -8 L 234,1 Q 210,2 183,2 156,2 145,3 42,3 33,0 h -8 v 46 z"
       id="MJMAIN-6E-6"
       inkscape:connector-curvature="0"
       style="stroke-width:1" />
    <path
       d="m 132,-11 q -34,0 -34,33 v 11 l 13,28 q 75,158 109,273 l 8,24 h -32 q -38,0 -54,-3 -16,-3 -39,-19 -11,-7 -22,-18 -11,-11 -19,-21 -8,-10 -9,-12 -2,-1 -15,-1 -19,0 -19,10 0,6 19,35 19,29 55,62 36,33 71,38 7,2 225,2 160,0 164,-1 20,-7 20,-28 0,-31 -32,-42 -6,-2 -69,-2 h -64 l -3,-17 q -12,-72 -12,-119 0,-52 9,-93 9,-41 19,-64 10,-23 10,-28 0,-17 -14,-32 -14,-15 -36,-15 -11,0 -18,3 -7,3 -16,24 -9,21 -16,60 -1,9 -1,44 0,49 9,105 9,56 18,92 9,36 10,40 h -98 l -1,-4 q 0,-3 -19,-79 Q 230,199 206,114 182,29 175,17 164,-11 132,-11 Z"
       id="MJMATHI-3C0-06"
       inkscape:connector-curvature="0"
       style="stroke-width:1" />
    <path
       d="m 83,-11 q -13,0 -21,7 -8,7 -11,12 -3,5 -2,9 0,13 47,200 47,187 51,197 13,28 46,28 12,-1 20,-7 8,-6 10,-13 2,-7 2,-10 0,-11 -17,-75 l -16,-67 q 1,-1 16,7 15,8 27,15 17,12 71,57 54,45 90,63 36,18 71,19 22,0 33,-11 11,-11 12,-29 0,-25 -18,-44 -18,-19 -45,-20 -19,0 -31,11 -12,11 -13,30 0,2 2,12 l -10,-5 q -29,-15 -82,-60 l -62,-49 -13,-9 h 5 q 17,0 55,-6 38,-6 66,-21 56,-27 56,-80 0,-10 -5,-36 -5,-26 -6,-47 0,-41 26,-41 47,0 76,111 3,12 6,14 3,2 16,2 19,0 19,-9 0,-23 -27,-80 -27,-57 -70,-71 -10,-3 -26,-3 -45,0 -71,27 -26,27 -27,73 0,18 3,32 3,14 3,24 0,24 -19,40 -19,16 -49,23 -30,7 -49,9 -19,2 -37,3 h -5 L 155,122 Q 129,22 126,16 113,-11 83,-11 Z"
       id="MJMATHI-3BA-7"
       inkscape:connector-curvature="0"
       style="stroke-width:1" />
    <path
       d="m 213,578 -13,-5 q -14,-5 -40,-10 -26,-5 -58,-7 H 83 v 46 h 19 q 47,2 87,15 40,13 56,24 16,11 28,22 2,3 12,3 9,0 17,-6 V 361 l 1,-300 q 7,-7 12,-9 5,-2 24,-4 19,-2 62,-2 h 26 V 0 H 416 Q 395,3 257,3 121,3 100,0 H 88 v 46 h 26 q 22,0 38,0 16,0 25,1 9,1 16,3 7,2 8,2 1,0 6,5 5,5 6,4 z"
       id="MJMAIN-31-9"
       inkscape:connector-curvature="0"
       style="stroke-width:1" />
    <path
       d="m 109,429 q -27,0 -43,18 -16,18 -16,44 0,71 53,123 53,52 132,52 91,0 152,-56 61,-56 62,-145 0,-43 -20,-82 -20,-39 -48,-68 -28,-29 -80,-74 -36,-31 -100,-92 l -59,-56 76,-1 q 157,0 167,5 7,2 24,89 v 3 h 40 v -3 Q 448,183 436,95 424,7 421,3 V 0 H 50 v 19 12 q 0,7 6,15 6,8 30,35 29,32 50,56 9,10 34,37 25,27 34,37 9,10 29,33 20,23 28,34 8,11 23,30 15,19 21,32 6,13 15,29 9,16 13,32 4,16 7,30 3,14 3,33 0,63 -34,109 -34,46 -97,46 -33,0 -58,-17 -25,-17 -35,-33 -10,-16 -10,-19 0,-1 5,-1 18,0 37,-14 19,-14 19,-46 0,-25 -16,-42 -16,-17 -45,-18 z"
       id="MJMAIN-32-7"
       inkscape:connector-curvature="0"
       style="stroke-width:1" />
    <path
       d="m 52,289 q 7,42 54,97 47,55 116,56 35,0 64,-18 29,-18 43,-45 42,63 101,63 37,0 64,-22 27,-22 28,-59 0,-29 -14,-47 -14,-18 -27,-22 -13,-4 -23,-4 -19,0 -31,11 -12,11 -12,29 0,46 50,63 -11,13 -40,13 -13,0 -19,-2 -38,-16 -56,-66 -60,-221 -60,-258 0,-28 16,-40 16,-12 35,-12 37,0 73,33 36,33 49,81 3,10 6,11 3,1 16,2 h 4 q 15,0 15,-8 0,-1 -2,-11 Q 486,77 440,33 394,-11 333,-11 263,-11 227,52 186,-10 133,-10 h -6 q -49,0 -70,26 -21,26 -22,55 0,32 19,52 19,20 45,20 43,0 43,-42 Q 142,81 130,66 118,51 107,46 96,41 94,41 l -3,-1 q 0,-1 6,-4 6,-3 16,-7 10,-4 19,-3 36,0 62,45 9,16 23,68 14,52 28,108 14,56 16,66 5,27 5,39 0,28 -15,40 -15,12 -34,12 -40,0 -75,-32 -35,-32 -49,-82 -2,-9 -5,-10 -3,-1 -16,-2 H 58 q -6,6 -6,11 z"
       id="MJMATHI-78-9"
       inkscape:connector-curvature="0"
       style="stroke-width:1" />
    <path
       d="m 56,347 q 0,13 14,20 h 637 q 15,-8 15,-20 0,-11 -14,-19 L 390,327 H 72 q -16,5 -16,20 z m 0,-194 q 0,15 16,20 h 636 q 14,-10 14,-20 0,-13 -15,-20 H 70 q -14,7 -14,20 z"
       id="MJMAIN-3D-29"
       inkscape:connector-curvature="0"
       style="stroke-width:1" />
    <path
       d="m 295,316 q 0,40 -27,69 -27,29 -78,29 -36,0 -62,-13 -30,-19 -30,-52 -1,-5 0,-13 1,-8 16,-24 15,-16 43,-25 18,-5 44,-9 26,-4 44,-9 18,-5 32,-13 17,-8 33,-20 16,-12 32,-41 16,-29 17,-62 Q 359,71 321,31 283,-9 198,-10 h -8 q -52,0 -96,36 L 86,19 77,10 Q 71,4 65,-1 L 54,-11 h -8 -4 q -3,0 -9,6 v 79 58 q 0,21 2,25 2,4 10,5 h 9 q 12,0 16,-4 4,-4 5,-12 1,-8 7,-27 6,-19 19,-42 35,-51 97,-51 97,0 97,78 0,29 -18,47 -20,24 -83,36 -63,12 -83,23 -36,17 -57,46 -21,29 -21,62 0,39 17,66 17,27 43,40 26,13 50,18 24,5 44,5 h 11 q 40,0 70,-15 l 15,-8 9,7 q 10,9 22,17 h 8 4 q 3,0 9,-6 V 310 l -6,-6 h -28 q -6,6 -6,12 z"
       id="MJMAIN-73-3"
       inkscape:connector-curvature="0"
       style="stroke-width:1" />
    <path
       d="m 69,609 q 0,28 18,44 18,16 44,16 23,-2 40,-17 17,-15 17,-43 0,-30 -17,-45 -17,-15 -42,-15 -25,0 -42,15 -17,15 -18,45 z M 247,0 Q 232,3 143,3 132,3 106,3 80,3 56,1 L 34,0 h -8 v 46 h 16 q 28,0 49,3 9,4 11,11 2,7 2,42 v 103 88 q 0,52 -2,66 -2,14 -14,19 -14,7 -47,7 H 30 v 23 q 0,23 2,23 l 10,1 q 10,1 28,2 18,1 36,2 17,1 36,2 19,1 29,3 10,2 11,1 h 3 V 62 q 5,-10 12,-12 7,-2 35,-4 h 23 V 0 Z"
       id="MJMAIN-69-9"
       inkscape:connector-curvature="0"
       style="stroke-width:1" />
    <path
       d="m 41,46 h 14 q 39,0 47,14 v 8 q 0,9 0,23 0,14 0,31 0,17 1,39 1,22 0,42 0,31 0,66 0,35 -1,59 v 23 q -3,19 -14,25 -11,6 -45,9 H 25 v 23 q 0,23 2,23 l 10,1 q 10,1 28,2 18,1 37,2 17,1 36,2 19,1 29,3 10,2 11,1 h 3 v -40 q 0,-38 1,-38 1,0 5,5 4,5 12,15 8,10 19,18 11,8 29,19 18,11 38,16 20,5 51,5 114,-4 127,-113 1,-7 1,-139 v -86 q 0,-38 2,-45 2,-7 11,-10 21,-3 49,-3 h 16 V 0 h -8 L 510,1 Q 487,2 460,2 433,2 422,3 319,3 310,0 h -8 v 46 h 16 q 61,0 61,16 1,2 1,138 -1,135 -2,143 -6,28 -20,42 -14,14 -24,17 -10,3 -26,2 -45,0 -79,-34 -27,-27 -34,-55 -7,-28 -8,-83 v -64 -60 q 0,-30 1,-40 1,-10 3,-13 2,-3 9,-6 21,-3 49,-3 h 16 V 0 h -8 L 234,1 Q 210,2 183,2 156,2 145,3 42,3 33,0 h -8 v 46 z"
       id="MJMAIN-6E-7"
       inkscape:connector-curvature="0"
       style="stroke-width:1" />
    <path
       d="m 132,-11 q -34,0 -34,33 v 11 l 13,28 q 75,158 109,273 l 8,24 h -32 q -38,0 -54,-3 -16,-3 -39,-19 -11,-7 -22,-18 -11,-11 -19,-21 -8,-10 -9,-12 -2,-1 -15,-1 -19,0 -19,10 0,6 19,35 19,29 55,62 36,33 71,38 7,2 225,2 160,0 164,-1 20,-7 20,-28 0,-31 -32,-42 -6,-2 -69,-2 h -64 l -3,-17 q -12,-72 -12,-119 0,-52 9,-93 9,-41 19,-64 10,-23 10,-28 0,-17 -14,-32 -14,-15 -36,-15 -11,0 -18,3 -7,3 -16,24 -9,21 -16,60 -1,9 -1,44 0,49 9,105 9,56 18,92 9,36 10,40 h -98 l -1,-4 q 0,-3 -19,-79 Q 230,199 206,114 182,29 175,17 164,-11 132,-11 Z"
       id="MJMATHI-3C0-2"
       inkscape:connector-curvature="0"
       style="stroke-width:1" />
    <path
       d="m 33,157 q 0,101 76,192 76,91 171,92 51,0 90,-49 16,30 46,30 13,0 23,-8 10,-8 10,-20 0,-13 -37,-160 -37,-147 -38,-166 0,-25 7,-33 7,-8 21,-9 9,1 20,9 21,20 41,96 6,20 10,21 2,1 10,1 h 4 q 19,0 19,-9 0,-6 -5,-27 Q 496,96 481,63 466,30 449,13 436,0 417,-8 q -8,-2 -24,-2 -34,0 -57,15 -23,15 -30,31 l -6,15 q -1,1 -4,-1 -2,-2 -4,-4 -59,-56 -120,-56 -55,0 -97,40 -42,40 -42,127 z m 318,171 q 0,6 -5,22 -5,16 -23,35 -18,19 -46,20 -35,0 -67,-31 -32,-31 -50,-81 -29,-79 -41,-164 0,-3 0,-11 0,-8 -1,-12 0,-45 18,-62 18,-17 43,-18 38,0 75,33 37,33 44,51 2,4 27,107 25,103 26,111 z"
       id="MJMATHI-61-6"
       inkscape:connector-curvature="0"
       style="stroke-width:1" />
    <path
       d="m 213,578 -13,-5 q -14,-5 -40,-10 -26,-5 -58,-7 H 83 v 46 h 19 q 47,2 87,15 40,13 56,24 16,11 28,22 2,3 12,3 9,0 17,-6 V 361 l 1,-300 q 7,-7 12,-9 5,-2 24,-4 19,-2 62,-2 h 26 V 0 H 416 Q 395,3 257,3 121,3 100,0 H 88 v 46 h 26 q 22,0 38,0 16,0 25,1 9,1 16,3 7,2 8,2 1,0 6,5 5,5 6,4 z"
       id="MJMAIN-31-76"
       inkscape:connector-curvature="0"
       style="stroke-width:1" />
    <path
       d="m 84,237 q 0,0 0,13 0,13 14,20 h 1346 q -116,87 -143,223 0,1 0,3 0,2 -1,3 0,12 17,12 h 3 q 9,0 12,-1 3,-1 6,-4 3,-3 3,-9 0,-6 3,-16 3,-10 8,-25 22,-67 73,-120 51,-53 119,-75 9,-3 9,-11 0,-6 -5,-9 -5,-3 -24,-10 -19,-7 -38,-19 -41,-26 -71,-60 -30,-34 -45,-67 -15,-33 -21,-50 -6,-17 -8,-31 -2,-10 -5,-12 -3,-2 -16,-3 -20,0 -20,11 0,7 5,25 32,126 139,205 H 98 q -14,7 -14,20 z"
       id="MJMAIN-27F6-6"
       inkscape:connector-curvature="0"
       style="stroke-width:1" />
    <path
       d="m 165,270 h 1345 q 15,-8 15,-20 0,-12 -15,-20 H 165 q 2,-2 17,-14 15,-12 29,-27 14,-15 33,-37 19,-22 33,-56 14,-34 26,-71 5,-18 5,-25 0,-11 -20,-11 -7,0 -10,0 -3,0 -6,4 -3,4 -5,9 -2,5 -4,19 -18,73 -68,130 -50,57 -122,85 -15,6 -18,11 0,7 4,10 4,3 14,7 48,19 85,50 37,31 57,61 20,30 32,59 12,29 17,46 l 3,17 q 2,6 3,8 1,2 5,4 4,2 13,2 20,0 20,-11 0,-7 -5,-25 -10,-37 -25,-69 -15,-32 -32,-54 -17,-22 -31,-37 -14,-15 -30,-28 -16,-13 -20,-17 z"
       id="MJMAIN-27F5-3"
       inkscape:connector-curvature="0"
       style="stroke-width:1" />
    <path
       d="m 28,214 q 0,95 65,164 65,69 157,70 90,0 155,-68 65,-68 66,-165 Q 471,120 407,55 343,-10 250,-10 153,-10 91,57 29,124 28,214 Z M 250,30 q 122,0 122,163 v 32 25 q 0,22 -1,38 -1,16 -7,38 -6,22 -16,36 -10,14 -31,28 -21,14 -49,20 -5,1 -16,1 -30,0 -57,-12 -43,-22 -56,-61 -13,-39 -13,-92 v -20 q 0,-96 19,-135 32,-61 105,-61 z"
       id="MJMAIN-6F-2"
       inkscape:connector-curvature="0"
       style="stroke-width:1" />
    <path
       d="M 383,58 Q 327,-10 256,-10 h -7 q -125,0 -144,99 -1,7 -2,137 -1,109 -1,122 0,13 -6,21 -10,16 -60,16 H 25 v 23 q 0,23 2,23 l 11,1 q 10,1 29,2 19,1 38,2 17,1 37,2 20,1 30,3 10,2 12,1 h 3 V 261 q 1,-184 3,-197 3,-15 14,-24 20,-14 60,-14 26,0 47,9 21,9 32,23 11,14 20,32 9,18 12,30 3,12 4,24 0,1 0,17 0,16 1,40 1,24 0,47 v 67 q 0,46 -10,57 -10,11 -50,13 h -18 v 46 q 2,0 76,5 74,5 79,6 h 7 V 264 q 0,-180 1,-183 3,-20 14,-26 11,-6 45,-9 h 18 V 0 q -2,0 -75,-5 -73,-5 -77,-6 h -7 z"
       id="MJMAIN-75-0"
       inkscape:connector-curvature="0"
       style="stroke-width:1" />
    <path
       d="m 27,422 q 53,4 82,56 29,52 32,122 v 15 h 40 V 431 H 316 V 385 H 181 V 241 q 1,-125 1,-141 0,-16 7,-32 14,-39 49,-39 44,0 54,71 1,8 1,46 v 35 h 40 v -35 -12 q 0,-77 -42,-117 -27,-27 -70,-27 -34,0 -59,12 -25,12 -38,31 -13,19 -19,35 -6,16 -7,32 -1,7 -1,148 V 385 H 18 v 37 z"
       id="MJMAIN-74-5"
       inkscape:connector-curvature="0"
       style="stroke-width:1" />
    <path
       d="m 228,637 q -34,0 -36,4 -1,2 -1,8 0,24 11,33 2,1 17,1 41,-2 136,-2 34,0 63,0 29,0 45,1 16,1 20,0 16,0 16,-10 0,-2 -2,-14 -5,-17 -10,-20 h -2 q -2,0 -5,0 -3,0 -7,0 -4,0 -9,-1 -5,-1 -9,0 -39,-1 -50,-3 -11,-2 -18,-11 -3,-4 -32,-123 -7,-26 -15,-58 -8,-32 -12,-47 l -4,-15 q 0,-2 145,-2 h 145 l 1,3 q 0,3 31,123 28,115 28,123 0,8 -57,10 -23,0 -30,2 -7,2 -7,9 0,2 2,12 4,17 6,19 2,2 16,3 5,0 42,-1 37,-1 94,-1 62,0 95,1 33,1 36,1 17,0 17,-10 0,-27 -12,-34 h -2 q -2,0 -5,0 -3,0 -7,0 -4,0 -9,-1 -5,-1 -9,0 -39,-1 -50,-3 -11,-2 -18,-11 -3,-5 -72,-283 -69,-278 -70,-282 0,-7 4,-7 8,-3 54,-5 h 31 q 6,-8 6,-9 0,-1 -3,-18 Q 722,6 716,0 h -15 q -37,2 -134,2 -34,0 -63,0 -29,0 -46,0 -17,0 -21,-1 -17,0 -17,9 0,5 3,14 5,19 10,21 4,1 15,1 h 6 q 27,0 60,3 6,1 8,1 2,0 6,5 4,5 6,9 2,4 6,18 4,14 7,28 3,14 11,43 7,28 11,45 33,132 33,133 0,1 -145,1 H 312 L 279,197 Q 245,63 245,58 q 0,-7 8,-9 8,-2 50,-3 h 31 q 6,-8 6,-9 0,-1 -3,-18 Q 333,6 327,0 H 312 Q 275,2 178,2 144,2 115,2 86,2 69,2 52,2 48,1 31,1 31,10 q 0,2 3,14 5,19 10,21 4,1 15,1 h 6 q 27,0 60,3 14,3 19,12 3,4 72,278 69,274 69,289 0,7 -57,9 z"
       id="MJMATHI-48-7"
       inkscape:connector-curvature="0"
       style="stroke-width:1" />
    <path
       d="m 182,599 q 0,12 -8,16 -8,4 -41,4 -15,0 -19,2 -4,2 -5,9 0,6 5,26 5,20 8,25 3,4 80,7 70,7 84,7 18,0 18,-11 0,-2 -9,-40 -9,-38 -13,-47 0,-5 78,-5 h 39 q 31,0 46,-5 15,-5 15,-24 0,-11 -9,-22 l -9,-6 H 266 l -15,-67 q -4,-15 -8,-32 -4,-17 -7,-27 -3,-10 -3,-10 0,-4 11,5 51,37 113,37 48,0 88,-24 40,-24 40,-84 0,-49 -36,-155 -36,-106 -37,-120 -1,-14 14,-14 21,0 40,24 19,19 34,62 l 9,22 h 22 12 q 19,0 19,-8 0,-16 -16,-51 -16,-35 -52,-70 -36,-35 -79,-36 -30,0 -56,16 -26,16 -37,41 -4,8 -4,33 0,22 34,119 34,97 34,141 0,49 -40,49 -28,0 -60,-16 -19,-9 -41,-32 -22,-23 -34,-46 -4,-5 -18,-57 Q 179,183 162,113 145,43 138,21 128,7 122,4 105,-12 83,-12 66,-12 54,-2 42,8 42,26 l 124,504 q 0,4 -5,4 -5,0 -32,1 -2,0 -7,0 -5,0 -10,-1 -38,0 -38,28 0,8 3,14 3,6 7,9 4,3 12,4 8,1 13,2 5,1 15,1 10,0 14,0 l 44,3 z"
       id="MJMAIN-210F-8"
       inkscape:connector-curvature="0"
       style="stroke-width:1" />
    <path
       d="m 495,384 q 0,22 19,40 19,18 41,19 19,0 34,-18 15,-18 15,-61 0,-30 -12,-86 Q 580,222 555,155 530,88 483,38 436,-12 377,-11 q -80,0 -110,77 -1,2 -7,-5 -59,-72 -135,-72 -110,0 -110,150 0,91 41,186 41,95 67,109 12,7 24,2 13,-7 13,-18 0,-12 -20,-39 -20,-27 -46,-73 -26,-46 -32,-98 -1,-6 -1,-21 0,-63 24,-87 24,-24 58,-24 58,0 102,53 l 8,8 v 19 q 5,141 64,141 31,0 31,-36 0,-18 -10,-48 -10,-30 -20,-55 l -10,-23 q 1,-2 2,-6 1,-4 8,-14 7,-10 16,-18 9,-8 24,-14 15,-6 35,-7 63,0 108,72 45,72 45,126 0,31 -13,51 -13,20 -25,32 -12,12 -13,27 z"
       id="MJMATHI-3C9-2"
       inkscape:connector-curvature="0"
       style="stroke-width:1" />
    <path
       d="m 96,585 q 56,81 153,81 48,0 96,-26 48,-26 78,-92 37,-83 37,-228 0,-155 -43,-237 -20,-42 -55,-67 -35,-25 -61,-31 -26,-6 -51,-7 -26,0 -52,6 -26,6 -61,32 -35,26 -55,67 -43,82 -43,237 0,174 57,265 z m 225,12 q -30,32 -71,32 -42,0 -72,-32 -25,-26 -33,-72 -8,-46 -8,-192 0,-158 8,-208 8,-50 36,-79 28,-30 69,-30 40,0 68,30 29,30 36,84 7,54 8,203 0,145 -8,191 -8,46 -33,73 z"
       id="MJMAIN-30-4"
       inkscape:connector-curvature="0"
       style="stroke-width:1" />
    <path
       d="m 182,675 q 13,30 40,30 12,0 21,-5 9,-5 10,-9 1,-4 10,-16 l -1,-20 q 0,-35 -10,-106 -10,-71 -12,-95 v -5 q 10,2 48,12 38,10 58,11 20,1 31,-11 11,-12 12,-30 0,-14 -10,-27 -10,-13 -33,-14 -19,0 -58,11 -39,11 -45,11 h -3 v -7 q 5,-38 10,-66 5,-28 8,-38 3,-10 3,-27 0,-17 2,-49 0,-101 -8,-266 -8,-165 -16,-172 -3,-3 -17,-3 h -5 q -11,0 -13,4 -2,4 -4,26 -1,11 -1,18 -18,206 -18,393 0,40 1,55 1,15 9,47 8,32 13,78 v 7 h -3 q -5,0 -44,-11 -39,-11 -59,-11 -22,0 -32,13 -10,13 -11,28 -1,15 10,27 11,12 33,14 18,0 57,-10 39,-10 50,-13 -1,3 -1,11 0,8 -3,30 -3,22 -8,57 -11,72 -11,108 z"
       id="MJMAIN-2020-5"
       inkscape:connector-curvature="0"
       style="stroke-width:1" />
    <path
       d="m 109,429 q -27,0 -43,18 -16,18 -16,44 0,71 53,123 53,52 132,52 91,0 152,-56 61,-56 62,-145 0,-43 -20,-82 -20,-39 -48,-68 -28,-29 -80,-74 -36,-31 -100,-92 l -59,-56 76,-1 q 157,0 167,5 7,2 24,89 v 3 h 40 v -3 Q 448,183 436,95 424,7 421,3 V 0 H 50 v 19 12 q 0,7 6,15 6,8 30,35 29,32 50,56 9,10 34,37 25,27 34,37 9,10 29,33 20,23 28,34 8,11 23,30 15,19 21,32 6,13 15,29 9,16 13,32 4,16 7,30 3,14 3,33 0,63 -34,109 -34,46 -97,46 -33,0 -58,-17 -25,-17 -35,-33 -10,-16 -10,-19 0,-1 5,-1 18,0 37,-14 19,-14 19,-46 0,-25 -16,-42 -16,-17 -45,-18 z"
       id="MJMAIN-32-5"
       inkscape:connector-curvature="0"
       style="stroke-width:1" />
    <path
       d="m 130,622 q -7,7 -11,9 -4,2 -16,3 -12,1 -43,3 H 27 v 46 h 187 q 23,0 62,0 39,0 55,1 88,0 140,-13 52,-13 96,-55 57,-53 57,-127 0,-68 -51,-117 -51,-49 -122,-65 -22,-5 -123,-6 H 234 V 181 q 0,-119 3,-123 8,-11 67,-12 h 33 V 0 H 326 Q 305,3 182,3 47,3 38,0 H 27 v 46 h 33 q 42,1 51,3 9,2 19,12 z M 507,488 q 0,26 -1,40 -1,14 -6,36 -5,22 -17,33 -12,11 -33,23 -21,12 -53,15 -12,2 -90,2 h -21 q -49,0 -52,-9 -3,-4 -3,-145 V 342 h 71 37 q 51,0 84,7 33,7 58,33 26,29 26,106 z"
       id="MJMAIN-50"
       inkscape:connector-curvature="0"
       style="stroke-width:1" />
    <path
       d="m 36,46 h 14 q 39,0 47,14 v 8 q 0,9 0,23 0,14 1,31 1,17 0,39 -1,22 0,42 0,31 0,66 0,35 0,59 l -1,23 q -3,19 -14,25 -11,6 -45,9 H 20 v 23 q 0,23 2,23 l 10,1 q 10,1 28,2 18,1 36,2 16,1 35,2 19,1 29,3 10,2 11,1 h 3 v -69 q 39,68 97,68 h 6 q 45,0 66,-22 21,-22 21,-46 0,-21 -13,-36 -13,-15 -38,-15 -25,0 -37,16 -12,16 -13,34 0,9 2,16 2,7 5,12 3,5 3,5 -2,2 -23,-4 -16,-8 -24,-15 -47,-45 -47,-179 v -53 q 0,-13 0,-27 0,-14 0,-26 0,-12 1,-20 1,-8 0,-15 v -5 q 1,-2 3,-4 2,-2 5,-3 3,-1 5,-3 2,-2 7,-2 5,0 7,-1 2,-1 9,-1 7,0 9,0 2,0 10,-1 8,-1 10,0 h 31 V 0 h -9 Q 249,3 140,3 37,3 28,0 h -8 v 46 z"
       id="MJMAIN-72"
       inkscape:connector-curvature="0"
       style="stroke-width:1" />
    <path
       d="m 56,342 q 0,86 33,158 33,72 85,115 52,43 109,66 57,23 108,24 3,0 9,0 6,0 8,-1 91,0 161,-68 l 13,-12 30,39 q 27,37 31,41 1,0 4,0 3,0 6,1 h 4 q 3,0 9,-6 V 419 l -6,-6 h -34 q -6,6 -7,17 -9,82 -48,142 -39,60 -95,79 -19,7 -50,7 -104,0 -174,-70 -79,-79 -79,-246 0,-121 38,-191 21,-40 52,-67 31,-27 65,-39 34,-12 56,-16 22,-4 44,-5 89,0 143,69 54,69 55,151 0,7 6,13 h 28 l 6,-6 V 236 Q 661,133 590,56 519,-21 403,-21 262,-21 159,83 56,187 56,342 Z"
       id="MJMAIN-43"
       inkscape:connector-curvature="0"
       style="stroke-width:1" />
    <path
       d="m 137,305 q 0,0 -22,0 -22,0 -37,15 -15,15 -15,39 0,35 34,62 34,27 121,27 73,0 118,-32 45,-32 60,-76 5,-14 5,-31 0,-17 1,-115 v -70 q 0,-48 5,-66 5,-18 21,-18 15,0 20,16 5,16 5,53 v 36 h 40 V 106 Q 492,66 490,59 481,29 455,12 429,-5 400,-6 371,-7 353,12 335,31 329,54 v 4 l -2,-3 q -2,-3 -5,-6 -3,-3 -8,-9 -5,-6 -12,-11 -7,-5 -15,-12 -8,-7 -18,-11 -10,-4 -22,-8 -12,-4 -26,-6 -14,-2 -31,-3 -60,0 -108,31 -48,31 -48,87 0,21 7,40 7,19 27,41 20,22 48,37 28,15 78,28 50,13 110,15 h 14 v 22 q 0,34 -6,50 -22,71 -97,71 -18,0 -34,-1 -16,-1 -25,-4 -9,-3 -8,-3 22,-15 22,-44 0,-25 -16,-39 z M 126,106 q 0,-31 24,-55 24,-24 59,-25 38,0 67,23 29,23 39,60 2,7 3,66 0,58 -1,58 -8,0 -21,-1 -13,-1 -45,-9 -32,-8 -58,-20 -26,-12 -46,-37 -20,-25 -21,-60 z"
       id="MJMAIN-61"
       inkscape:connector-curvature="0"
       style="stroke-width:1" />
    <path
       d="m 338,431 q 6,-2 84,-2 57,0 81,2 h 5 V 385 H 497 Q 439,381 423,345 421,341 356,172 291,3 288,-2 q -5,-9 -25,-9 -19,0 -24,9 -140,361 -141,366 -5,14 -16,17 -11,3 -39,4 H 19 v 46 h 6 l 8,-1 q 8,0 20,0 12,0 26,0 14,0 25,-1 11,-1 18,-1 95,0 110,3 h 8 v -46 h -14 q -39,-1 -42,-15 0,-4 51,-136 l 51,-132 91,239 v 8 q 0,14 -10,23 -10,9 -18,11 -8,2 -14,2 h -4 v 46 z"
       id="MJMAIN-76"
       inkscape:connector-curvature="0"
       style="stroke-width:1" />
    <path
       d="m 69,-66 q 22,0 35,-14 13,-14 14,-36 0,-18 -9,-29 -9,-11 -18,-15 -7,-3 6,-6 7,-2 14,-2 20,0 37,9 17,9 27,21 10,12 22,32 12,20 16,31 4,11 12,32 l 17,43 -72,183 q -20,50 -45,114 -24,61 -29,71 -5,10 -16,13 -1,1 -2,1 -12,3 -44,3 H 19 v 46 h 7 l 20,-1 q 19,0 42,-1 23,-1 34,-1 7,0 20,0 13,0 29,1 16,1 29,1 13,0 24,0 l 9,1 h 8 v -46 h -9 q -49,0 -47,-19 L 286,112 q 0,1 46,115 l 44,114 v 9 q 0,15 -10,23 -10,8 -18,10 -8,2 -14,2 h -3 v 46 h 6 7 q 7,0 17,0 10,0 21,-1 11,-1 23,-1 12,0 17,0 55,0 81,2 h 5 v -46 h -11 q -56,-5 -75,-40 -2,-2 -44,-110 -42,-108 -89,-226 -47,-118 -62,-140 -47,-73 -114,-73 -44,0 -69,27 -25,27 -25,61 0,27 16,38 16,11 34,12 z"
       id="MJMAIN-79"
       inkscape:connector-curvature="0"
       style="stroke-width:1" />
  </defs>
  <sodipodi:namedview
     id="base"
     pagecolor="#ffffff"
     bordercolor="#666666"
     borderopacity="1.0"
     inkscape:pageopacity="0.0"
     inkscape:pageshadow="2"
     inkscape:zoom="1.979899"
     inkscape:cx="284.85347"
     inkscape:cy="170.63626"
     inkscape:document-units="mm"
     inkscape:current-layer="layer1"
     showgrid="false"
     inkscape:window-width="1920"
     inkscape:window-height="1005"
     inkscape:window-x="-9"
     inkscape:window-y="-9"
     inkscape:window-maximized="1"
     fit-margin-top="0"
     fit-margin-left="0"
     fit-margin-right="0"
     fit-margin-bottom="0" />
  <metadata
     id="metadata5">
    <rdf:RDF>
      <cc:Work
         rdf:about="">
        <dc:format>image/svg+xml</dc:format>
        <dc:type
           rdf:resource="http://purl.org/dc/dcmitype/StillImage" />
        <dc:title></dc:title>
      </cc:Work>
    </rdf:RDF>
  </metadata>
  <g
     inkscape:label="Layer 1"
     inkscape:groupmode="layer"
     id="layer1"
     style="display:inline"
     transform="translate(-30.173833,-49.927691)">
    <g
       id="g417"
       transform="matrix(0.00972193,0,0,-0.00972193,71.030911,80.532528)"
       style="fill:currentColor;stroke:currentColor;stroke-width:0">
      <use
         id="use413"
         y="0"
         x="0"
         xlink:href="#MJMATHI-3BA"
         width="100%"
         height="100%" />
      <use
         id="use415"
         y="-213"
         x="815"
         xlink:href="#MJMAIN-31-7"
         transform="scale(0.707)"
         width="100%"
         height="100%" />
    </g>
    <g
       id="g472"
       transform="matrix(0.00966196,0,0,-0.00966196,138.0338,80.54158)"
       style="fill:currentColor;stroke:currentColor;stroke-width:0">
      <use
         id="use468"
         y="0"
         x="0"
         xlink:href="#MJMATHI-3BA-7"
         width="100%"
         height="100%" />
      <use
         id="use470"
         y="-213"
         x="815"
         xlink:href="#MJMAIN-32-7"
         transform="scale(0.707)"
         width="100%"
         height="100%" />
    </g>
    <path
       style="fill:none;stroke:#000000;stroke-width:0.29853442px;stroke-linecap:butt;stroke-linejoin:miter;stroke-opacity:1"
       d="m 67.631935,63.52753 v 32"
       id="path5017"
       inkscape:connector-curvature="0" />
    <path
       style="display:inline;fill:none;stroke:#000000;stroke-width:0.29853442px;stroke-linecap:butt;stroke-linejoin:miter;stroke-opacity:1"
       d="m 82.631935,63.528 v 32"
       id="path5017-6"
       inkscape:connector-curvature="0" />
    <path
       style="display:inline;fill:none;stroke:#000000;stroke-width:0.29853442px;stroke-linecap:butt;stroke-linejoin:miter;stroke-opacity:1"
       d="m 135.13193,63.528 v 32"
       id="path5017-0"
       inkscape:connector-curvature="0" />
    <path
       style="display:inline;fill:none;stroke:#000000;stroke-width:0.29853439px;stroke-linecap:butt;stroke-linejoin:miter;stroke-opacity:1"
       d="m 150.13193,63.528 v 32"
       id="path5017-7"
       inkscape:connector-curvature="0" />
    <g
       id="g5431"
       transform="matrix(0.00732723,0,0,-0.00732723,24.612172,72.068614)"
       style="fill:currentColor;stroke:currentColor;stroke-width:0">
      <g
         id="g5429"
         transform="translate(167)">
        <g
           id="g5309"
           transform="translate(-15)">
          <g
             id="g5281"
             transform="translate(0,2075)">
            <g
               id="g5279"
               transform="translate(1530)">
              <use
                 id="use5275"
                 y="0"
                 x="0"
                 xlink:href="#MJMAIN-50"
                 width="100%"
                 height="100%" />
              <use
                 id="use5277"
                 y="0"
                 x="681"
                 xlink:href="#MJMAIN-6F-2"
                 width="100%"
                 height="100%" />
            </g>
          </g>
          <g
             id="g5293"
             transform="translate(1492,-548)">
            <use
               id="use5283"
               y="0"
               x="0"
               xlink:href="#MJMATHI-61-6"
               width="100%"
               height="100%" />
            <g
               id="g5289"
               transform="translate(529,345)">
              <use
                 id="use5285"
                 y="0"
                 x="0"
                 xlink:href="#MJMAIN-69-9"
                 transform="scale(0.707)"
                 width="100%"
                 height="100%" />
              <use
                 id="use5287"
                 y="0"
                 x="278"
                 xlink:href="#MJMAIN-6E-7"
                 transform="scale(0.707)"
                 width="100%"
                 height="100%" />
            </g>
            <use
               id="use5291"
               y="-435"
               x="748"
               xlink:href="#MJMAIN-31-76"
               transform="scale(0.707)"
               width="100%"
               height="100%" />
          </g>
          <g
             id="g5307"
             transform="translate(1060,-2069)">
            <use
               id="use5295"
               y="0"
               x="0"
               xlink:href="#MJMATHI-61-6"
               width="100%"
               height="100%" />
            <g
               id="g5303"
               transform="translate(529,352)">
              <use
                 id="use5297"
                 y="0"
                 x="0"
                 xlink:href="#MJMAIN-6F-2"
                 transform="scale(0.707)"
                 width="100%"
                 height="100%" />
              <use
                 id="use5299"
                 y="0"
                 x="500"
                 xlink:href="#MJMAIN-75-0"
                 transform="scale(0.707)"
                 width="100%"
                 height="100%" />
              <use
                 id="use5301"
                 y="0"
                 x="1057"
                 xlink:href="#MJMAIN-74-5"
                 transform="scale(0.707)"
                 width="100%"
                 height="100%" />
            </g>
            <use
               id="use5305"
               y="-435"
               x="748"
               xlink:href="#MJMAIN-31-76"
               transform="scale(0.707)"
               width="100%"
               height="100%" />
          </g>
        </g>
        <g
           id="g5327"
           transform="translate(2698)">
          <g
             id="g5317"
             transform="translate(0,2075)">
            <use
               id="use5311"
               y="0"
               x="0"
               xlink:href="#MJMAIN-72"
               width="100%"
               height="100%" />
            <use
               id="use5313"
               y="0"
               x="392"
               xlink:href="#MJMAIN-74-5"
               width="100%"
               height="100%" />
            <use
               id="use5315"
               y="0"
               x="1004"
               xlink:href="#MJMAIN-31-76"
               width="100%"
               height="100%" />
          </g>
          <g
             id="g5321"
             transform="translate(0,-548)">
            <use
               id="use5319"
               y="0"
               x="277"
               xlink:href="#MJMAIN-27F6-6"
               width="100%"
               height="100%" />
          </g>
          <g
             id="g5325"
             transform="translate(0,-2069)">
            <use
               id="use5323"
               y="0"
               x="277"
               xlink:href="#MJMAIN-27F5-3"
               width="100%"
               height="100%" />
          </g>
        </g>
        <g
           id="g5375"
           transform="translate(8656)">
          <g
             id="g5343"
             transform="translate(0,2075)">
            <g
               id="g5341"
               transform="translate(1000)">
              <use
                 id="use5329"
                 y="0"
                 x="0"
                 xlink:href="#MJMAIN-43"
                 width="100%"
                 height="100%" />
              <use
                 id="use5331"
                 y="0"
                 x="722"
                 xlink:href="#MJMAIN-61"
                 width="100%"
                 height="100%" />
              <use
                 id="use5333"
                 y="0"
                 x="1223"
                 xlink:href="#MJMAIN-76"
                 width="100%"
                 height="100%" />
              <use
                 id="use5335"
                 y="0"
                 x="1751"
                 xlink:href="#MJMAIN-69-9"
                 width="100%"
                 height="100%" />
              <use
                 id="use5337"
                 y="0"
                 x="2030"
                 xlink:href="#MJMAIN-74-5"
                 width="100%"
                 height="100%" />
              <use
                 id="use5339"
                 y="0"
                 x="2419"
                 xlink:href="#MJMAIN-79"
                 width="100%"
                 height="100%" />
            </g>
          </g>
          <g
             id="g5351"
             transform="translate(0,-548)">
            <use
               id="use5345"
               y="0"
               x="277"
               xlink:href="#MJMAIN-27F5-3"
               width="100%"
               height="100%" />
            <use
               id="use5347"
               y="0"
               x="2165"
               xlink:href="#MJMATHI-61-6"
               width="100%"
               height="100%" />
            <use
               id="use5349"
               y="0"
               x="2972"
               xlink:href="#MJMAIN-27F6-6"
               width="100%"
               height="100%" />
          </g>
          <g
             id="g5373"
             transform="translate(0,-2069)">
            <use
               id="use5353"
               y="0"
               x="0"
               xlink:href="#MJMATHI-48-7"
               width="100%"
               height="100%" />
            <use
               id="use5355"
               y="0"
               x="1166"
               xlink:href="#MJMAIN-3D-29"
               width="100%"
               height="100%" />
            <use
               id="use5357"
               y="0"
               x="2222"
               xlink:href="#MJMAIN-210F-8"
               width="100%"
               height="100%" />
            <g
               id="g5363"
               transform="translate(2785)">
              <use
                 id="use5359"
                 y="0"
                 x="0"
                 xlink:href="#MJMATHI-3C9-2"
                 width="100%"
                 height="100%" />
              <use
                 id="use5361"
                 y="-213"
                 x="880"
                 xlink:href="#MJMAIN-30-4"
                 transform="scale(0.707)"
                 width="100%"
                 height="100%" />
            </g>
            <g
               id="g5369"
               transform="translate(3861)">
              <use
                 id="use5365"
                 y="0"
                 x="0"
                 xlink:href="#MJMATHI-61-6"
                 width="100%"
                 height="100%" />
              <use
                 id="use5367"
                 y="583"
                 x="748"
                 xlink:href="#MJMAIN-2020-5"
                 transform="scale(0.707)"
                 width="100%"
                 height="100%" />
            </g>
            <use
               id="use5371"
               y="0"
               x="4805"
               xlink:href="#MJMATHI-61-6"
               width="100%"
               height="100%" />
          </g>
        </g>
        <g
           id="g5393"
           transform="translate(17990)">
          <g
             id="g5383"
             transform="translate(64,2075)">
            <use
               id="use5377"
               y="0"
               x="0"
               xlink:href="#MJMAIN-50"
               width="100%"
               height="100%" />
            <use
               id="use5379"
               y="0"
               x="681"
               xlink:href="#MJMAIN-6F-2"
               width="100%"
               height="100%" />
            <use
               id="use5381"
               y="0"
               x="1182"
               xlink:href="#MJMAIN-72"
               width="100%"
               height="100%" />
          </g>
          <g
             id="g5387"
             transform="translate(29,-548)">
            <use
               id="use5385"
               y="0"
               x="0"
               xlink:href="#MJMAIN-27F5-3"
               width="100%"
               height="100%" />
          </g>
          <g
             id="g5391"
             transform="translate(0,-2069)">
            <use
               id="use5389"
               y="0"
               x="0"
               xlink:href="#MJMAIN-27F6-6"
               width="100%"
               height="100%" />
          </g>
        </g>
        <g
           id="g5427"
           transform="translate(19629)">
          <g
             id="g5399"
             transform="translate(0,2075)">
            <use
               id="use5395"
               y="0"
               x="0"
               xlink:href="#MJMAIN-74-5"
               width="100%"
               height="100%" />
            <use
               id="use5397"
               y="0"
               x="611"
               xlink:href="#MJMAIN-32-5"
               width="100%"
               height="100%" />
          </g>
          <g
             id="g5411"
             transform="translate(0,-548)">
            <use
               id="use5401"
               y="0"
               x="0"
               xlink:href="#MJMATHI-61-6"
               width="100%"
               height="100%" />
            <g
               id="g5407"
               transform="translate(529,345)">
              <use
                 id="use5403"
                 y="0"
                 x="0"
                 xlink:href="#MJMAIN-69-9"
                 transform="scale(0.707)"
                 width="100%"
                 height="100%" />
              <use
                 id="use5405"
                 y="0"
                 x="278"
                 xlink:href="#MJMAIN-6E-7"
                 transform="scale(0.707)"
                 width="100%"
                 height="100%" />
            </g>
            <use
               id="use5409"
               y="-435"
               x="748"
               xlink:href="#MJMAIN-32-5"
               transform="scale(0.707)"
               width="100%"
               height="100%" />
          </g>
          <g
             id="g5425"
             transform="translate(0,-2069)">
            <use
               id="use5413"
               y="0"
               x="0"
               xlink:href="#MJMATHI-61-6"
               width="100%"
               height="100%" />
            <g
               id="g5421"
               transform="translate(529,352)">
              <use
                 id="use5415"
                 y="0"
                 x="0"
                 xlink:href="#MJMAIN-6F-2"
                 transform="scale(0.707)"
                 width="100%"
                 height="100%" />
              <use
                 id="use5417"
                 y="0"
                 x="500"
                 xlink:href="#MJMAIN-75-0"
                 transform="scale(0.707)"
                 width="100%"
                 height="100%" />
              <use
                 id="use5419"
                 y="0"
                 x="1057"
                 xlink:href="#MJMAIN-74-5"
                 transform="scale(0.707)"
                 width="100%"
                 height="100%" />
            </g>
            <use
               id="use5423"
               y="-435"
               x="748"
               xlink:href="#MJMAIN-32-5"
               transform="scale(0.707)"
               width="100%"
               height="100%" />
          </g>
        </g>
      </g>
    </g>
    <path
       style="fill:none;stroke:#000000;stroke-width:0.26066068px;stroke-linecap:butt;stroke-linejoin:miter;stroke-opacity:1"
       d="M 67.631935,63.52753 H 32.37684"
       id="path5556"
       inkscape:connector-curvature="0" />
    <path
       style="fill:none;stroke:#000000;stroke-width:0.26458332px;stroke-linecap:butt;stroke-linejoin:miter;stroke-opacity:1"
       d="M 82.631934,63.528 H 135.13193"
       id="path5573"
       inkscape:connector-curvature="0" />
    <path
       style="fill:none;stroke:#000000;stroke-width:0.26458332px;stroke-linecap:butt;stroke-linejoin:miter;stroke-opacity:1"
       d="M 82.631934,95.527998 H 135.13193"
       id="path5575"
       inkscape:connector-curvature="0" />
    <path
       style="fill:none;stroke:#000000;stroke-width:0.26458332px;stroke-linecap:butt;stroke-linejoin:miter;stroke-opacity:1"
       d="m 150.13193,63.528 h 31.79934"
       id="path5577"
       inkscape:connector-curvature="0" />
    <path
       style="display:inline;fill:none;stroke:#000000;stroke-width:0.26458332px;stroke-linecap:butt;stroke-linejoin:miter;stroke-opacity:1"
       d="m 150.13193,95.528 h 31.79934"
       id="path5577-1"
       inkscape:connector-curvature="0" />
    <path
       style="display:inline;fill:none;stroke:#000000;stroke-width:0.26066068px;stroke-linecap:butt;stroke-linejoin:miter;stroke-opacity:1"
       d="M 67.631935,95.52753 H 32.376841"
       id="path5556-7"
       inkscape:connector-curvature="0" />
  </g>
</svg>
