<?xml version="1.0" encoding="utf-8" standalone="no"?>
<!DOCTYPE svg PUBLIC "-//W3C//DTD SVG 1.1//EN"
  "http://www.w3.org/Graphics/SVG/1.1/DTD/svg11.dtd">
<!-- Created with matplotlib (https://matplotlib.org/) -->
<svg height="538.740842pt" version="1.1" viewBox="0 0 720 538.740842" width="720pt" xmlns="http://www.w3.org/2000/svg" xmlns:xlink="http://www.w3.org/1999/xlink">
 <defs>
  <style type="text/css">
*{stroke-linecap:butt;stroke-linejoin:round;}
  </style>
 </defs>
 <g id="figure_1">
  <g id="patch_1">
   <path d="M 0 538.740842 
L 720 538.740842 
L 720 0 
L 0 0 
z
" style="fill:none;"/>
  </g>
  <g id="axes_1">
   <g id="patch_2">
    <path d="M 111.848063 459.403534 
L 616.933864 459.403534 
L 616.933864 18.8 
L 111.848063 18.8 
z
" style="fill:none;"/>
   </g>
   <g id="matplotlib.axis_1">
    <g id="xtick_1">
     <g id="line2d_1">
      <defs>
       <path d="M 0 0 
L 0 8 
" id="m05dbea0f16" style="stroke:#000000;stroke-width:2;"/>
      </defs>
      <g>
       <use style="stroke:#000000;stroke-width:2;" x="174.084499" xlink:href="#m05dbea0f16" y="459.403534"/>
      </g>
     </g>
     <g id="text_1">
      <!-- $10^{-1}$ -->
      <defs>
       <path d="M 26.59375 63.796875 
C 26.59375 65.890625 26.5 66 25.09375 66 
C 21.203125 61.359375 15.296875 59.890625 9.703125 59.6875 
C 9.40625 59.6875 8.90625 59.6875 8.796875 59.5 
C 8.703125 59.296875 8.703125 59.09375 8.703125 57 
C 11.796875 57 17 57.59375 21 59.984375 
L 21 7.296875 
C 21 3.796875 20.796875 2.59375 12.203125 2.59375 
L 9.203125 2.59375 
L 9.203125 0 
C 14 0.09375 19 0.1875 23.796875 0.1875 
C 28.59375 0.1875 33.59375 0.09375 38.40625 0 
L 38.40625 2.59375 
L 35.40625 2.59375 
C 26.796875 2.59375 26.59375 3.6875 26.59375 7.296875 
z
" id="CMR17-49"/>
       <path d="M 42 31.84375 
C 42 37.96875 41.90625 48.421875 37.703125 56.453125 
C 34 63.484375 28.09375 66 22.90625 66 
C 18.09375 66 12 63.78125 8.203125 56.5625 
C 4.203125 49.015625 3.796875 39.671875 3.796875 31.84375 
C 3.796875 26.109375 3.90625 17.375 7 9.734375 
C 11.296875 -0.609375 19 -2 22.90625 -2 
C 27.5 -2 34.5 -0.109375 38.59375 9.4375 
C 41.59375 16.375 42 24.5 42 31.84375 
z
M 22.90625 -0.40625 
C 16.5 -0.40625 12.703125 5.125 11.296875 12.75 
C 10.203125 18.6875 10.203125 27.328125 10.203125 32.953125 
C 10.203125 40.6875 10.203125 47.109375 11.5 53.234375 
C 13.40625 61.78125 19 64.390625 22.90625 64.390625 
C 27 64.390625 32.296875 61.671875 34.203125 53.4375 
C 35.5 47.71875 35.59375 40.984375 35.59375 32.953125 
C 35.59375 26.421875 35.59375 18.375 34.40625 12.453125 
C 32.296875 1.5 26.40625 -0.40625 22.90625 -0.40625 
z
" id="CMR17-48"/>
       <path d="M 65.90625 23 
C 67.59375 23 69.40625 23 69.40625 25 
C 69.40625 27 67.59375 27 65.90625 27 
L 11.796875 27 
C 10.09375 27 8.296875 27 8.296875 25 
C 8.296875 23 10.09375 23 11.796875 23 
z
" id="CMSY10-0"/>
      </defs>
      <g transform="translate(152.512798 487.507939)scale(0.24 -0.24)">
       <use transform="scale(0.996264)" xlink:href="#CMR17-49"/>
       <use transform="translate(45.690477 0)scale(0.996264)" xlink:href="#CMR17-48"/>
       <use transform="translate(91.380954 36.153639)scale(0.697382)" xlink:href="#CMSY10-0"/>
       <use transform="translate(145.621947 36.153639)scale(0.697382)" xlink:href="#CMR17-49"/>
      </g>
     </g>
    </g>
    <g id="xtick_2">
     <g id="line2d_2">
      <g>
       <use style="stroke:#000000;stroke-width:2;" x="384.029959" xlink:href="#m05dbea0f16" y="459.403534"/>
      </g>
     </g>
     <g id="text_2">
      <!-- $10^{0}$ -->
      <g transform="translate(368.967174 487.507939)scale(0.24 -0.24)">
       <use transform="scale(0.996264)" xlink:href="#CMR17-49"/>
       <use transform="translate(45.690477 0)scale(0.996264)" xlink:href="#CMR17-48"/>
       <use transform="translate(91.380954 36.153639)scale(0.697382)" xlink:href="#CMR17-48"/>
      </g>
     </g>
    </g>
    <g id="xtick_3">
     <g id="line2d_3">
      <g>
       <use style="stroke:#000000;stroke-width:2;" x="593.975418" xlink:href="#m05dbea0f16" y="459.403534"/>
      </g>
     </g>
     <g id="text_3">
      <!-- $10^{1}$ -->
      <g transform="translate(578.912633 487.507939)scale(0.24 -0.24)">
       <use transform="scale(0.996264)" xlink:href="#CMR17-49"/>
       <use transform="translate(45.690477 0)scale(0.996264)" xlink:href="#CMR17-48"/>
       <use transform="translate(91.380954 36.153639)scale(0.697382)" xlink:href="#CMR17-49"/>
      </g>
     </g>
    </g>
    <g id="xtick_4">
     <g id="line2d_4">
      <defs>
       <path d="M 0 0 
L 0 4 
" id="m8421a2a8fc" style="stroke:#000000;"/>
      </defs>
      <g>
       <use style="stroke:#000000;" x="127.508362" xlink:href="#m8421a2a8fc" y="459.403534"/>
      </g>
     </g>
    </g>
    <g id="xtick_5">
     <g id="line2d_5">
      <g>
       <use style="stroke:#000000;" x="141.563536" xlink:href="#m8421a2a8fc" y="459.403534"/>
      </g>
     </g>
    </g>
    <g id="xtick_6">
     <g id="line2d_6">
      <g>
       <use style="stroke:#000000;" x="153.738682" xlink:href="#m8421a2a8fc" y="459.403534"/>
      </g>
     </g>
    </g>
    <g id="xtick_7">
     <g id="line2d_7">
      <g>
       <use style="stroke:#000000;" x="164.477922" xlink:href="#m8421a2a8fc" y="459.403534"/>
      </g>
     </g>
    </g>
    <g id="xtick_8">
     <g id="line2d_8">
      <g>
       <use style="stroke:#000000;" x="237.28438" xlink:href="#m8421a2a8fc" y="459.403534"/>
      </g>
     </g>
    </g>
    <g id="xtick_9">
     <g id="line2d_9">
      <g>
       <use style="stroke:#000000;" x="274.25394" xlink:href="#m8421a2a8fc" y="459.403534"/>
      </g>
     </g>
    </g>
    <g id="xtick_10">
     <g id="line2d_10">
      <g>
       <use style="stroke:#000000;" x="300.484261" xlink:href="#m8421a2a8fc" y="459.403534"/>
      </g>
     </g>
    </g>
    <g id="xtick_11">
     <g id="line2d_11">
      <g>
       <use style="stroke:#000000;" x="320.830078" xlink:href="#m8421a2a8fc" y="459.403534"/>
      </g>
     </g>
    </g>
    <g id="xtick_12">
     <g id="line2d_12">
      <g>
       <use style="stroke:#000000;" x="337.453821" xlink:href="#m8421a2a8fc" y="459.403534"/>
      </g>
     </g>
    </g>
    <g id="xtick_13">
     <g id="line2d_13">
      <g>
       <use style="stroke:#000000;" x="351.508996" xlink:href="#m8421a2a8fc" y="459.403534"/>
      </g>
     </g>
    </g>
    <g id="xtick_14">
     <g id="line2d_14">
      <g>
       <use style="stroke:#000000;" x="363.684142" xlink:href="#m8421a2a8fc" y="459.403534"/>
      </g>
     </g>
    </g>
    <g id="xtick_15">
     <g id="line2d_15">
      <g>
       <use style="stroke:#000000;" x="374.423381" xlink:href="#m8421a2a8fc" y="459.403534"/>
      </g>
     </g>
    </g>
    <g id="xtick_16">
     <g id="line2d_16">
      <g>
       <use style="stroke:#000000;" x="447.229839" xlink:href="#m8421a2a8fc" y="459.403534"/>
      </g>
     </g>
    </g>
    <g id="xtick_17">
     <g id="line2d_17">
      <g>
       <use style="stroke:#000000;" x="484.1994" xlink:href="#m8421a2a8fc" y="459.403534"/>
      </g>
     </g>
    </g>
    <g id="xtick_18">
     <g id="line2d_18">
      <g>
       <use style="stroke:#000000;" x="510.42972" xlink:href="#m8421a2a8fc" y="459.403534"/>
      </g>
     </g>
    </g>
    <g id="xtick_19">
     <g id="line2d_19">
      <g>
       <use style="stroke:#000000;" x="530.775537" xlink:href="#m8421a2a8fc" y="459.403534"/>
      </g>
     </g>
    </g>
    <g id="xtick_20">
     <g id="line2d_20">
      <g>
       <use style="stroke:#000000;" x="547.39928" xlink:href="#m8421a2a8fc" y="459.403534"/>
      </g>
     </g>
    </g>
    <g id="xtick_21">
     <g id="line2d_21">
      <g>
       <use style="stroke:#000000;" x="561.454455" xlink:href="#m8421a2a8fc" y="459.403534"/>
      </g>
     </g>
    </g>
    <g id="xtick_22">
     <g id="line2d_22">
      <g>
       <use style="stroke:#000000;" x="573.629601" xlink:href="#m8421a2a8fc" y="459.403534"/>
      </g>
     </g>
    </g>
    <g id="xtick_23">
     <g id="line2d_23">
      <g>
       <use style="stroke:#000000;" x="584.368841" xlink:href="#m8421a2a8fc" y="459.403534"/>
      </g>
     </g>
    </g>
    <g id="text_4">
     <!-- $\sigma_{\omega_{0}}/\kappa_{\mathrm{tot}}$ -->
     <defs>
      <path d="M 50.796875 37.59375 
C 52.09375 37.59375 55.40625 37.59375 55.40625 40.796875 
C 55.40625 43 53.5 43 51.703125 43 
L 29.59375 43 
C 14.59375 43 3.796875 26.328125 3.796875 14.5625 
C 3.796875 6.078125 9.296875 -1 18.296875 -1 
C 30.09375 -1 43 11.65625 43 26.625 
C 43 30.515625 42.09375 34.296875 39.703125 37.59375 
z
M 18.40625 1 
C 13.296875 1 9.59375 4.875 9.59375 11.765625 
C 9.59375 17.75 13.203125 37.59375 27.90625 37.59375 
C 32.203125 37.59375 37 35.5 37 27.8125 
C 37 24.328125 35.40625 15.953125 31.90625 10.171875 
C 28.296875 4.28125 22.90625 1 18.40625 1 
z
" id="CMMI12-27"/>
      <path d="M 59.40625 37.59375 
C 59.40625 40.5 58.59375 44.1875 55.09375 44.1875 
C 53.09375 44.1875 50.796875 41.6875 50.796875 39.6875 
C 50.796875 38.796875 51.203125 38.1875 52 37.296875 
C 53.5 35.59375 55.40625 32.890625 55.40625 28.1875 
C 55.40625 24.59375 53.203125 18.890625 51.59375 15.796875 
C 48.796875 10.296875 44.203125 5.59375 39 5.59375 
C 32.703125 5.59375 30.296875 9.59375 29.203125 15.1875 
C 30.296875 17.796875 32.59375 24.296875 32.59375 26.890625 
C 32.59375 28 32.203125 28.890625 30.90625 28.890625 
C 30.203125 28.890625 29.40625 28.5 28.90625 27.6875 
C 27.5 25.5 26.203125 17.59375 26.296875 15.5 
C 24.40625 11.796875 19 5.59375 12.59375 5.59375 
C 5.90625 5.59375 4.09375 11.5 4.09375 17.1875 
C 4.09375 27.59375 10.59375 36.6875 12.40625 39.1875 
C 13.40625 40.6875 14.09375 41.6875 14.09375 41.890625 
C 14.09375 42.59375 13.703125 43.6875 12.796875 43.6875 
C 11.203125 43.6875 10.703125 42.390625 9.90625 41.1875 
C 4.796875 33.296875 1.203125 22.1875 1.203125 12.59375 
C 1.203125 6.390625 3.5 -1 11 -1 
C 19.296875 -1 24.5 6.09375 26.59375 9.890625 
C 27.40625 4.296875 30.40625 -1 37.703125 -1 
C 45.296875 -1 50.09375 5.6875 53.703125 13.796875 
C 56.296875 19.59375 59.40625 32.09375 59.40625 37.59375 
z
" id="CMMI12-33"/>
      <path d="M 42.90625 71.296875 
C 42.90625 71.390625 43.5 72.890625 43.5 73.09375 
C 43.5 74.296875 42.5 75 41.703125 75 
C 41.203125 75 40.296875 75 39.5 72.796875 
L 6 -21.3125 
C 6 -21.40625 5.40625 -22.90625 5.40625 -23.109375 
C 5.40625 -24.3125 6.40625 -25 7.203125 -25 
C 7.796875 -25 8.703125 -24.90625 9.40625 -22.8125 
z
" id="CMMI12-61"/>
      <path d="M 21.296875 24.921875 
C 24.59375 26.71875 28.296875 29.8125 30.796875 31.90625 
C 36.796875 37.09375 39 38.6875 42.796875 40.1875 
C 42.40625 39.59375 42.296875 38.796875 42.296875 38.09375 
C 42.296875 35.390625 44.59375 34.890625 45.59375 34.890625 
C 48.796875 34.890625 50.59375 37.890625 50.59375 39.796875 
C 50.59375 40.390625 50.40625 43 46.90625 43 
C 40.90625 43 35 37.890625 30.59375 34.1875 
C 24.796875 29.109375 21.90625 26.921875 17.796875 25.625 
L 21.59375 41.484375 
C 21.59375 43.09375 20.296875 44 19 44 
C 18.09375 44 15.90625 43.6875 15.09375 40.484375 
L 5.796875 3.484375 
C 5.5 2.28125 5.5 2.09375 5.5 1.484375 
C 5.5 0.09375 6.59375 -1 8.09375 -1 
C 11.09375 -1 11.703125 1.59375 12.203125 3.6875 
C 12.796875 5.765625 16.90625 22.390625 17.09375 23 
C 29.796875 22.390625 34.09375 19.203125 34.09375 14.328125 
C 34.09375 13.640625 34.09375 13.34375 33.796875 12.234375 
C 33.40625 10.34375 33.40625 9.25 33.40625 8.65625 
C 33.40625 2.6875 37.296875 -1 42.203125 -1 
C 46.296875 -1 48.59375 1.890625 50.09375 4.46875 
C 52.203125 8.359375 53.5 13.828125 53.5 14.234375 
C 53.5 14.734375 53.09375 15.125 52.5 15.125 
C 51.59375 15.125 51.5 14.734375 51.09375 13.140625 
C 49.796875 8.359375 47.59375 1 42.5 1 
C 40.296875 1 39.203125 2.28125 39.203125 5.765625 
C 39.203125 7.65625 39.59375 9.859375 40 11.34375 
C 40.203125 12.34375 40.5 13.53125 40.5 14.625 
C 40.5 23.71875 27.90625 24.625 21.296875 24.921875 
z
" id="CMMI12-20"/>
      <path d="M 15.09375 40.390625 
L 29.09375 40.390625 
L 29.09375 43 
L 15.09375 43 
L 15.09375 62 
L 13.296875 62 
C 13.09375 51.4375 9.59375 42.1875 1.09375 41.984375 
L 1.09375 40.390625 
L 9.796875 40.390625 
L 9.796875 12.15625 
C 9.796875 10.234375 9.796875 -1 21.40625 -1 
C 27.296875 -1 30.703125 4.8125 30.703125 12.25 
L 30.703125 17.984375 
L 28.90625 17.984375 
L 28.90625 12.34375 
C 28.90625 5.421875 26.203125 0.796875 22 0.796875 
C 19.09375 0.796875 15.09375 2.796875 15.09375 11.953125 
z
" id="CMR17-116"/>
      <path d="M 43.09375 21.1875 
C 43.09375 34 33.796875 44 22.90625 44 
C 12 44 2.703125 34 2.703125 21.1875 
C 2.703125 8.59375 12 -1 22.90625 -1 
C 33.796875 -1 43.09375 8.59375 43.09375 21.1875 
z
M 22.90625 0.796875 
C 18.203125 0.796875 14.203125 3.59375 11.90625 7.5 
C 9.40625 12 9.09375 17.59375 9.09375 22 
C 9.09375 26.1875 9.296875 31.390625 11.90625 35.890625 
C 13.90625 39.1875 17.796875 42.390625 22.90625 42.390625 
C 27.40625 42.390625 31.203125 39.890625 33.59375 36.390625 
C 36.703125 31.6875 36.703125 25.09375 36.703125 22 
C 36.703125 18.09375 36.5 12.09375 33.796875 7.296875 
C 31 2.6875 26.703125 0.796875 22.90625 0.796875 
z
" id="CMR17-111"/>
     </defs>
     <g transform="translate(317.594001 520.382554)scale(0.3 -0.3)">
      <use transform="translate(0 25.404611)scale(0.996264)" xlink:href="#CMMI12-27"/>
      <use transform="translate(55.445461 10.460696)scale(0.697382)" xlink:href="#CMMI12-33"/>
      <use transform="translate(97.965895 0)scale(0.498132)" xlink:href="#CMR17-48"/>
      <use transform="translate(121.807398 25.404611)scale(0.996264)" xlink:href="#CMMI12-61"/>
      <use transform="translate(170.582316 25.404611)scale(0.996264)" xlink:href="#CMMI12-20"/>
      <use transform="translate(226.73694 10.460696)scale(0.697382)" xlink:href="#CMR17-116"/>
      <use transform="translate(251.433361 10.460696)scale(0.697382)" xlink:href="#CMR17-111"/>
      <use transform="translate(283.416543 10.460696)scale(0.697382)" xlink:href="#CMR17-116"/>
     </g>
    </g>
   </g>
   <g id="matplotlib.axis_2">
    <g id="ytick_1">
     <g id="line2d_24">
      <defs>
       <path d="M 0 0 
L -8 0 
" id="me67388cffd" style="stroke:#000000;stroke-width:2;"/>
      </defs>
      <g>
       <use style="stroke:#000000;stroke-width:2;" x="111.848063" xlink:href="#me67388cffd" y="385.349838"/>
      </g>
     </g>
     <g id="text_5">
      <!-- $10^{-1}$ -->
      <g transform="translate(57.204659 393.652041)scale(0.24 -0.24)">
       <use transform="scale(0.996264)" xlink:href="#CMR17-49"/>
       <use transform="translate(45.690477 0)scale(0.996264)" xlink:href="#CMR17-48"/>
       <use transform="translate(91.380954 36.153639)scale(0.697382)" xlink:href="#CMSY10-0"/>
       <use transform="translate(145.621947 36.153639)scale(0.697382)" xlink:href="#CMR17-49"/>
      </g>
     </g>
    </g>
    <g id="ytick_2">
     <g id="line2d_25">
      <g>
       <use style="stroke:#000000;stroke-width:2;" x="111.848063" xlink:href="#me67388cffd" y="228.257903"/>
      </g>
     </g>
     <g id="text_6">
      <!-- $10^{0}$ -->
      <g transform="translate(70.222493 236.560105)scale(0.24 -0.24)">
       <use transform="scale(0.996264)" xlink:href="#CMR17-49"/>
       <use transform="translate(45.690477 0)scale(0.996264)" xlink:href="#CMR17-48"/>
       <use transform="translate(91.380954 36.153639)scale(0.697382)" xlink:href="#CMR17-48"/>
      </g>
     </g>
    </g>
    <g id="ytick_3">
     <g id="line2d_26">
      <g>
       <use style="stroke:#000000;stroke-width:2;" x="111.848063" xlink:href="#me67388cffd" y="71.165967"/>
      </g>
     </g>
     <g id="text_7">
      <!-- $10^{1}$ -->
      <g transform="translate(70.222493 79.46817)scale(0.24 -0.24)">
       <use transform="scale(0.996264)" xlink:href="#CMR17-49"/>
       <use transform="translate(45.690477 0)scale(0.996264)" xlink:href="#CMR17-48"/>
       <use transform="translate(91.380954 36.153639)scale(0.697382)" xlink:href="#CMR17-49"/>
      </g>
     </g>
    </g>
    <g id="ytick_4">
     <g id="line2d_27">
      <defs>
       <path d="M 0 0 
L -4 0 
" id="m116d80b451" style="stroke:#000000;"/>
      </defs>
      <g>
       <use style="stroke:#000000;" x="111.848063" xlink:href="#m116d80b451" y="447.863004"/>
      </g>
     </g>
    </g>
    <g id="ytick_5">
     <g id="line2d_28">
      <g>
       <use style="stroke:#000000;" x="111.848063" xlink:href="#m116d80b451" y="432.639223"/>
      </g>
     </g>
    </g>
    <g id="ytick_6">
     <g id="line2d_29">
      <g>
       <use style="stroke:#000000;" x="111.848063" xlink:href="#m116d80b451" y="420.200488"/>
      </g>
     </g>
    </g>
    <g id="ytick_7">
     <g id="line2d_30">
      <g>
       <use style="stroke:#000000;" x="111.848063" xlink:href="#m116d80b451" y="409.683687"/>
      </g>
     </g>
    </g>
    <g id="ytick_8">
     <g id="line2d_31">
      <g>
       <use style="stroke:#000000;" x="111.848063" xlink:href="#m116d80b451" y="400.57362"/>
      </g>
     </g>
    </g>
    <g id="ytick_9">
     <g id="line2d_32">
      <g>
       <use style="stroke:#000000;" x="111.848063" xlink:href="#m116d80b451" y="392.537971"/>
      </g>
     </g>
    </g>
    <g id="ytick_10">
     <g id="line2d_33">
      <g>
       <use style="stroke:#000000;" x="111.848063" xlink:href="#m116d80b451" y="338.060454"/>
      </g>
     </g>
    </g>
    <g id="ytick_11">
     <g id="line2d_34">
      <g>
       <use style="stroke:#000000;" x="111.848063" xlink:href="#m116d80b451" y="310.397937"/>
      </g>
     </g>
    </g>
    <g id="ytick_12">
     <g id="line2d_35">
      <g>
       <use style="stroke:#000000;" x="111.848063" xlink:href="#m116d80b451" y="290.771069"/>
      </g>
     </g>
    </g>
    <g id="ytick_13">
     <g id="line2d_36">
      <g>
       <use style="stroke:#000000;" x="111.848063" xlink:href="#m116d80b451" y="275.547287"/>
      </g>
     </g>
    </g>
    <g id="ytick_14">
     <g id="line2d_37">
      <g>
       <use style="stroke:#000000;" x="111.848063" xlink:href="#m116d80b451" y="263.108552"/>
      </g>
     </g>
    </g>
    <g id="ytick_15">
     <g id="line2d_38">
      <g>
       <use style="stroke:#000000;" x="111.848063" xlink:href="#m116d80b451" y="252.591751"/>
      </g>
     </g>
    </g>
    <g id="ytick_16">
     <g id="line2d_39">
      <g>
       <use style="stroke:#000000;" x="111.848063" xlink:href="#m116d80b451" y="243.481684"/>
      </g>
     </g>
    </g>
    <g id="ytick_17">
     <g id="line2d_40">
      <g>
       <use style="stroke:#000000;" x="111.848063" xlink:href="#m116d80b451" y="235.446035"/>
      </g>
     </g>
    </g>
    <g id="ytick_18">
     <g id="line2d_41">
      <g>
       <use style="stroke:#000000;" x="111.848063" xlink:href="#m116d80b451" y="180.968518"/>
      </g>
     </g>
    </g>
    <g id="ytick_19">
     <g id="line2d_42">
      <g>
       <use style="stroke:#000000;" x="111.848063" xlink:href="#m116d80b451" y="153.306001"/>
      </g>
     </g>
    </g>
    <g id="ytick_20">
     <g id="line2d_43">
      <g>
       <use style="stroke:#000000;" x="111.848063" xlink:href="#m116d80b451" y="133.679133"/>
      </g>
     </g>
    </g>
    <g id="ytick_21">
     <g id="line2d_44">
      <g>
       <use style="stroke:#000000;" x="111.848063" xlink:href="#m116d80b451" y="118.455352"/>
      </g>
     </g>
    </g>
    <g id="ytick_22">
     <g id="line2d_45">
      <g>
       <use style="stroke:#000000;" x="111.848063" xlink:href="#m116d80b451" y="106.016617"/>
      </g>
     </g>
    </g>
    <g id="ytick_23">
     <g id="line2d_46">
      <g>
       <use style="stroke:#000000;" x="111.848063" xlink:href="#m116d80b451" y="95.499816"/>
      </g>
     </g>
    </g>
    <g id="ytick_24">
     <g id="line2d_47">
      <g>
       <use style="stroke:#000000;" x="111.848063" xlink:href="#m116d80b451" y="86.389749"/>
      </g>
     </g>
    </g>
    <g id="ytick_25">
     <g id="line2d_48">
      <g>
       <use style="stroke:#000000;" x="111.848063" xlink:href="#m116d80b451" y="78.3541"/>
      </g>
     </g>
    </g>
    <g id="ytick_26">
     <g id="line2d_49">
      <g>
       <use style="stroke:#000000;" x="111.848063" xlink:href="#m116d80b451" y="23.876583"/>
      </g>
     </g>
    </g>
   </g>
   <g id="line2d_50">
    <defs>
     <path d="M 0 2.5 
C 0.663008 2.5 1.29895 2.236584 1.767767 1.767767 
C 2.236584 1.29895 2.5 0.663008 2.5 0 
C 2.5 -0.663008 2.236584 -1.29895 1.767767 -1.767767 
C 1.29895 -2.236584 0.663008 -2.5 0 -2.5 
C -0.663008 -2.5 -1.29895 -2.236584 -1.767767 -1.767767 
C -2.236584 -1.29895 -2.5 -0.663008 -2.5 0 
C -2.5 0.663008 -2.236584 1.29895 -1.767767 1.767767 
C -1.29895 2.236584 -0.663008 2.5 0 2.5 
z
" id="m559dcf5357" style="stroke:#d62728;"/>
    </defs>
    <g clip-path="url(#p2f12cad92b)">
     <use style="fill:#d62728;stroke:#d62728;" x="134.806508" xlink:href="#m559dcf5357" y="227.590525"/>
     <use style="fill:#d62728;stroke:#d62728;" x="150.639919" xlink:href="#m559dcf5357" y="226.680024"/>
     <use style="fill:#d62728;stroke:#d62728;" x="166.473329" xlink:href="#m559dcf5357" y="226.059562"/>
     <use style="fill:#d62728;stroke:#d62728;" x="182.30674" xlink:href="#m559dcf5357" y="225.212416"/>
     <use style="fill:#d62728;stroke:#d62728;" x="198.140151" xlink:href="#m559dcf5357" y="224.069643"/>
     <use style="fill:#d62728;stroke:#d62728;" x="213.973562" xlink:href="#m559dcf5357" y="222.551085"/>
     <use style="fill:#d62728;stroke:#d62728;" x="229.806972" xlink:href="#m559dcf5357" y="220.569205"/>
     <use style="fill:#d62728;stroke:#d62728;" x="245.640383" xlink:href="#m559dcf5357" y="218.035741"/>
     <use style="fill:#d62728;stroke:#d62728;" x="261.473794" xlink:href="#m559dcf5357" y="214.87057"/>
     <use style="fill:#d62728;stroke:#d62728;" x="277.307204" xlink:href="#m559dcf5357" y="211.009772"/>
     <use style="fill:#d62728;stroke:#d62728;" x="293.140615" xlink:href="#m559dcf5357" y="206.412438"/>
     <use style="fill:#d62728;stroke:#d62728;" x="308.974026" xlink:href="#m559dcf5357" y="201.064248"/>
     <use style="fill:#d62728;stroke:#d62728;" x="324.807436" xlink:href="#m559dcf5357" y="194.976174"/>
     <use style="fill:#d62728;stroke:#d62728;" x="340.640847" xlink:href="#m559dcf5357" y="188.177691"/>
     <use style="fill:#d62728;stroke:#d62728;" x="356.474258" xlink:href="#m559dcf5357" y="180.716085"/>
     <use style="fill:#d62728;stroke:#d62728;" x="372.307668" xlink:href="#m559dcf5357" y="172.643859"/>
     <use style="fill:#d62728;stroke:#d62728;" x="388.141079" xlink:href="#m559dcf5357" y="164.020723"/>
     <use style="fill:#d62728;stroke:#d62728;" x="403.97449" xlink:href="#m559dcf5357" y="154.902927"/>
     <use style="fill:#d62728;stroke:#d62728;" x="419.8079" xlink:href="#m559dcf5357" y="145.344536"/>
     <use style="fill:#d62728;stroke:#d62728;" x="435.641311" xlink:href="#m559dcf5357" y="135.395458"/>
     <use style="fill:#d62728;stroke:#d62728;" x="451.474722" xlink:href="#m559dcf5357" y="125.096036"/>
     <use style="fill:#d62728;stroke:#d62728;" x="467.308133" xlink:href="#m559dcf5357" y="114.478834"/>
     <use style="fill:#d62728;stroke:#d62728;" x="483.141543" xlink:href="#m559dcf5357" y="103.570806"/>
     <use style="fill:#d62728;stroke:#d62728;" x="498.974954" xlink:href="#m559dcf5357" y="92.386151"/>
     <use style="fill:#d62728;stroke:#d62728;" x="514.808365" xlink:href="#m559dcf5357" y="80.928008"/>
     <use style="fill:#d62728;stroke:#d62728;" x="530.641775" xlink:href="#m559dcf5357" y="69.185037"/>
     <use style="fill:#d62728;stroke:#d62728;" x="546.475186" xlink:href="#m559dcf5357" y="57.130271"/>
     <use style="fill:#d62728;stroke:#d62728;" x="562.308597" xlink:href="#m559dcf5357" y="44.722422"/>
     <use style="fill:#d62728;stroke:#d62728;" x="578.142007" xlink:href="#m559dcf5357" y="31.934187"/>
     <use style="fill:#d62728;stroke:#d62728;" x="593.975418" xlink:href="#m559dcf5357" y="18.8"/>
    </g>
   </g>
   <g id="line2d_51">
    <defs>
     <path d="M 0 2.5 
C 0.663008 2.5 1.29895 2.236584 1.767767 1.767767 
C 2.236584 1.29895 2.5 0.663008 2.5 0 
C 2.5 -0.663008 2.236584 -1.29895 1.767767 -1.767767 
C 1.29895 -2.236584 0.663008 -2.5 0 -2.5 
C -0.663008 -2.5 -1.29895 -2.236584 -1.767767 -1.767767 
C -2.236584 -1.29895 -2.5 -0.663008 -2.5 0 
C -2.5 0.663008 -2.236584 1.29895 -1.767767 1.767767 
C -1.29895 2.236584 -0.663008 2.5 0 2.5 
z
" id="m8c08afaff1" style="stroke:#1f77b4;"/>
    </defs>
    <g clip-path="url(#p2f12cad92b)">
     <use style="fill:#1f77b4;stroke:#1f77b4;" x="134.806508" xlink:href="#m8c08afaff1" y="228.952752"/>
     <use style="fill:#1f77b4;stroke:#1f77b4;" x="150.639919" xlink:href="#m8c08afaff1" y="230.600315"/>
     <use style="fill:#1f77b4;stroke:#1f77b4;" x="166.473329" xlink:href="#m8c08afaff1" y="231.516432"/>
     <use style="fill:#1f77b4;stroke:#1f77b4;" x="182.30674" xlink:href="#m8c08afaff1" y="232.762711"/>
     <use style="fill:#1f77b4;stroke:#1f77b4;" x="198.140151" xlink:href="#m8c08afaff1" y="234.435605"/>
     <use style="fill:#1f77b4;stroke:#1f77b4;" x="213.973562" xlink:href="#m8c08afaff1" y="236.643938"/>
     <use style="fill:#1f77b4;stroke:#1f77b4;" x="229.806972" xlink:href="#m8c08afaff1" y="239.501086"/>
     <use style="fill:#1f77b4;stroke:#1f77b4;" x="245.640383" xlink:href="#m8c08afaff1" y="243.112925"/>
     <use style="fill:#1f77b4;stroke:#1f77b4;" x="261.473794" xlink:href="#m8c08afaff1" y="247.563315"/>
     <use style="fill:#1f77b4;stroke:#1f77b4;" x="277.307204" xlink:href="#m8c08afaff1" y="252.901914"/>
     <use style="fill:#1f77b4;stroke:#1f77b4;" x="293.140615" xlink:href="#m8c08afaff1" y="259.136691"/>
     <use style="fill:#1f77b4;stroke:#1f77b4;" x="308.974026" xlink:href="#m8c08afaff1" y="266.233849"/>
     <use style="fill:#1f77b4;stroke:#1f77b4;" x="324.807436" xlink:href="#m8c08afaff1" y="274.125625"/>
     <use style="fill:#1f77b4;stroke:#1f77b4;" x="340.640847" xlink:href="#m8c08afaff1" y="282.72389"/>
     <use style="fill:#1f77b4;stroke:#1f77b4;" x="356.474258" xlink:href="#m8c08afaff1" y="291.92861"/>
     <use style="fill:#1f77b4;stroke:#1f77b4;" x="372.307668" xlink:href="#m8c08afaff1" y="301.64274"/>
     <use style="fill:#1f77b4;stroke:#1f77b4;" x="388.141079" xlink:href="#m8c08afaff1" y="311.774095"/>
     <use style="fill:#1f77b4;stroke:#1f77b4;" x="403.97449" xlink:href="#m8c08afaff1" y="322.243462"/>
     <use style="fill:#1f77b4;stroke:#1f77b4;" x="419.8079" xlink:href="#m8c08afaff1" y="332.983024"/>
     <use style="fill:#1f77b4;stroke:#1f77b4;" x="435.641311" xlink:href="#m8c08afaff1" y="343.936139"/>
     <use style="fill:#1f77b4;stroke:#1f77b4;" x="451.474722" xlink:href="#m8c08afaff1" y="355.058474"/>
     <use style="fill:#1f77b4;stroke:#1f77b4;" x="467.308133" xlink:href="#m8c08afaff1" y="366.314829"/>
     <use style="fill:#1f77b4;stroke:#1f77b4;" x="483.141543" xlink:href="#m8c08afaff1" y="377.676189"/>
     <use style="fill:#1f77b4;stroke:#1f77b4;" x="498.974954" xlink:href="#m8c08afaff1" y="389.121866"/>
     <use style="fill:#1f77b4;stroke:#1f77b4;" x="514.808365" xlink:href="#m8c08afaff1" y="400.63713"/>
     <use style="fill:#1f77b4;stroke:#1f77b4;" x="530.641775" xlink:href="#m8c08afaff1" y="412.214104"/>
     <use style="fill:#1f77b4;stroke:#1f77b4;" x="546.475186" xlink:href="#m8c08afaff1" y="423.853425"/>
     <use style="fill:#1f77b4;stroke:#1f77b4;" x="562.308597" xlink:href="#m8c08afaff1" y="435.571223"/>
     <use style="fill:#1f77b4;stroke:#1f77b4;" x="578.142007" xlink:href="#m8c08afaff1" y="447.404688"/>
     <use style="fill:#1f77b4;stroke:#1f77b4;" x="593.975418" xlink:href="#m8c08afaff1" y="459.403534"/>
    </g>
   </g>
   <g id="patch_3">
    <path d="M 111.848063 459.403534 
L 111.848063 18.8 
" style="fill:none;stroke:#000000;stroke-linecap:square;stroke-linejoin:miter;stroke-width:0.8;"/>
   </g>
   <g id="patch_4">
    <path d="M 616.933864 459.403534 
L 616.933864 18.8 
" style="fill:none;stroke:#000000;stroke-linecap:square;stroke-linejoin:miter;stroke-width:0.8;"/>
   </g>
   <g id="patch_5">
    <path d="M 111.848063 459.403534 
L 616.933864 459.403534 
" style="fill:none;stroke:#000000;stroke-linecap:square;stroke-linejoin:miter;stroke-width:0.8;"/>
   </g>
   <g id="patch_6">
    <path d="M 111.848063 18.8 
L 616.933864 18.8 
" style="fill:none;stroke:#000000;stroke-linecap:square;stroke-linejoin:miter;stroke-width:0.8;"/>
   </g>
   <g id="legend_1">
    <g id="patch_7">
     <path d="M 132.848063 131.021778 
L 326.497046 131.021778 
Q 332.497046 131.021778 332.497046 125.021778 
L 332.497046 39.8 
Q 332.497046 33.8 326.497046 33.8 
L 132.848063 33.8 
Q 126.848063 33.8 126.848063 39.8 
L 126.848063 125.021778 
Q 126.848063 131.021778 132.848063 131.021778 
z
" style="fill:#dcdcdc;opacity:0.8;stroke:#cccccc;stroke-linejoin:miter;"/>
    </g>
    <g id="line2d_52"/>
    <g id="line2d_53">
     <g>
      <use style="fill:#d62728;stroke:#d62728;" x="168.848063" xlink:href="#m559dcf5357" y="59.427676"/>
     </g>
    </g>
    <g id="text_8">
     <!-- $\kappa_{\mathrm{tot}}^{\prime}/\kappa_{\mathrm{tot}}$ -->
     <defs>
      <path d="M 25.296875 47.625 
C 25.796875 48.828125 26.203125 49.71875 26.203125 50.71875 
C 26.203125 53.59375 23.59375 56 20.5 56 
C 17.703125 56 15.90625 54.09375 15.203125 51.515625 
L 3.296875 8.078125 
C 3.296875 7.890625 2.90625 6.796875 2.90625 6.6875 
C 2.90625 5.59375 5.5 4.890625 6.296875 4.890625 
C 6.90625 4.890625 7 5.1875 7.59375 6.484375 
z
" id="CMSY10-48"/>
     </defs>
     <g transform="translate(222.848063 69.927676)scale(0.3 -0.3)">
      <use transform="translate(0 24.62935)scale(0.996264)" xlink:href="#CMMI12-20"/>
      <use transform="translate(56.154624 60.782989)scale(0.697382)" xlink:href="#CMSY10-48"/>
      <use transform="translate(56.154624 0)scale(0.697382)" xlink:href="#CMR17-116"/>
      <use transform="translate(80.851044 0)scale(0.697382)" xlink:href="#CMR17-111"/>
      <use transform="translate(112.834226 0)scale(0.697382)" xlink:href="#CMR17-116"/>
      <use transform="translate(138.028779 24.62935)scale(0.996264)" xlink:href="#CMMI12-61"/>
      <use transform="translate(186.803698 24.62935)scale(0.996264)" xlink:href="#CMMI12-20"/>
      <use transform="translate(242.958322 9.685436)scale(0.697382)" xlink:href="#CMR17-116"/>
      <use transform="translate(267.654742 9.685436)scale(0.697382)" xlink:href="#CMR17-111"/>
      <use transform="translate(299.637924 9.685436)scale(0.697382)" xlink:href="#CMR17-116"/>
     </g>
    </g>
    <g id="line2d_54"/>
    <g id="line2d_55">
     <g>
      <use style="fill:#1f77b4;stroke:#1f77b4;" x="168.848063" xlink:href="#m8c08afaff1" y="102.708327"/>
     </g>
    </g>
    <g id="text_9">
     <!-- $\xi^{\prime}$ -->
     <defs>
      <path d="M 26.09375 0 
L 15.59375 4.234375 
C 13 5.234375 7 7.65625 7 13.6875 
C 7 22.34375 17.5 31.09375 19.59375 31.09375 
C 19.796875 31.09375 20.703125 30.890625 21 30.796875 
C 23.703125 29.984375 26.296875 29.984375 28.09375 29.984375 
C 31.203125 29.984375 37.09375 29.984375 37.09375 32.640625 
C 37.09375 34.6875 33.5 35 29.203125 35 
C 27.203125 35 24.5 35 20.90625 33.796875 
C 18.5 35.796875 17.5 39.015625 17.5 42.03125 
C 17.5 47.546875 21.09375 55.390625 29 59.0625 
C 30.796875 57 33.203125 57 35.296875 57 
C 37.796875 57 43.90625 57 43.90625 59.640625 
C 43.90625 62 39.09375 62 35.90625 62 
C 33.90625 62 32.40625 62 29.59375 61.5 
C 29.09375 62.75 29 62.953125 29 65.3125 
C 29 67.234375 29.40625 68.6875 29.40625 68.984375 
C 29.40625 69.59375 28.90625 70 28.40625 70 
C 26.796875 70 26.796875 66.171875 26.796875 65.3125 
C 26.796875 63.8125 26.90625 62.3125 27.5 61 
C 15.5 57.890625 10.203125 49.359375 10.203125 42.828125 
C 10.203125 36.796875 14.203125 33.5 16.90625 32.28125 
C 6.59375 26.765625 2.203125 16.515625 2.203125 11.078125 
C 2.203125 2.3125 10.09375 -0.796875 13.703125 -2.3125 
L 22.703125 -5.9375 
C 25.203125 -6.84375 29.296875 -8.546875 30 -8.953125 
C 31 -9.65625 31.796875 -10.859375 31.796875 -12.46875 
C 31.796875 -14.59375 30.203125 -18 26.703125 -18 
C 25.203125 -18 21.90625 -17.609375 18.296875 -14.890625 
C 17.59375 -14.28125 17.5 -14.1875 17.09375 -14.1875 
C 16.59375 -14.1875 16.09375 -14.59375 16.09375 -15.1875 
C 16.09375 -16.296875 21.296875 -20 26.703125 -20 
C 33.09375 -20 37 -13.78125 37 -9.453125 
C 37 -6.328125 35.296875 -3.8125 32.09375 -2.40625 
z
M 31.203125 59.640625 
C 32.90625 60 34.703125 60 36 60 
C 39.296875 60 39.59375 59.921875 41.59375 59.5625 
C 40.40625 59.203125 39.59375 59 35.40625 59 
C 33.5 59 32.296875 59 31.203125 59.640625 
z
M 23.296875 32.5625 
C 25.703125 33 27.90625 33 29.09375 33 
C 32.40625 33 32.59375 32.921875 34.796875 32.5625 
C 33.703125 32.203125 32.796875 32 28.5 32 
C 26.09375 32 25.09375 32 23.296875 32.5625 
z
" id="CMMI12-24"/>
     </defs>
     <g transform="translate(222.848063 113.208327)scale(0.3 -0.3)">
      <use transform="scale(0.996264)" xlink:href="#CMMI12-24"/>
      <use transform="translate(47.420334 36.153639)scale(0.697382)" xlink:href="#CMSY10-48"/>
     </g>
    </g>
   </g>
  </g>
 </g>
 <defs>
  <clipPath id="p2f12cad92b">
   <rect height="440.603534" width="505.085801" x="111.848063" y="18.8"/>
  </clipPath>
 </defs>
</svg>
